<svg width="245" height="292" viewBox="0 0 245 292" fill="none" xmlns="http://www.w3.org/2000/svg">
<circle cx="123.452" cy="85.366" r="85.366" fill="white"/>
<circle cx="132.5" cy="97.5" r="51" stroke="#E6D6FF"/>
<circle cx="94.366" cy="88.366" r="84.866" stroke="#E6D6FF"/>
<path d="M65.5778 238.596V234.2H66.6698V244H65.5778V239.576H59.5578V244H58.4658V234.2H59.5578V238.596H65.5778ZM71.8949 236.3C72.9589 236.3 73.7616 236.561 74.3029 237.084C74.8536 237.597 75.1289 238.335 75.1289 239.296V244H74.0789V242.572C73.8363 242.992 73.4583 243.361 72.9449 243.678C72.4409 243.986 71.8483 244.14 71.1669 244.14C70.3643 244.14 69.7249 243.925 69.2489 243.496C68.7823 243.067 68.5489 242.507 68.5489 241.816C68.5489 241.088 68.7963 240.505 69.2909 240.066C69.7856 239.627 70.5276 239.408 71.5169 239.408C72.2636 239.408 73.1176 239.459 74.0789 239.562V239.31C74.0789 238.638 73.8829 238.129 73.4909 237.784C73.1083 237.429 72.5436 237.252 71.7969 237.252C71.3956 237.252 70.9896 237.327 70.5789 237.476C70.1683 237.616 69.7996 237.821 69.4729 238.092L68.9409 237.322C69.3516 236.977 69.8136 236.72 70.3269 236.552C70.8403 236.384 71.3629 236.3 71.8949 236.3ZM71.4889 243.174C71.9743 243.174 72.4129 243.053 72.8049 242.81C73.2063 242.567 73.5189 242.255 73.7429 241.872C73.9669 241.48 74.0789 241.083 74.0789 240.682V240.458C73.3696 240.346 72.5949 240.29 71.7549 240.29C70.2896 240.29 69.5569 240.78 69.5569 241.76C69.5569 242.217 69.7249 242.567 70.0609 242.81C70.3969 243.053 70.8729 243.174 71.4889 243.174ZM85.476 243.16V236.426H86.526V244H77.342V236.426H78.378V243.16H81.416V236.426H82.452V243.16H85.476ZM95.6431 236.426V244H94.5931V238.078L89.5811 244H88.7411V236.426H89.7911V242.32L94.7751 236.426H95.6431ZM104.83 236.3C105.894 236.3 106.697 236.561 107.238 237.084C107.789 237.597 108.064 238.335 108.064 239.296V244H107.014V242.572C106.772 242.992 106.394 243.361 105.88 243.678C105.376 243.986 104.784 244.14 104.102 244.14C103.3 244.14 102.66 243.925 102.184 243.496C101.718 243.067 101.484 242.507 101.484 241.816C101.484 241.088 101.732 240.505 102.226 240.066C102.721 239.627 103.463 239.408 104.452 239.408C105.199 239.408 106.053 239.459 107.014 239.562V239.31C107.014 238.638 106.818 238.129 106.426 237.784C106.044 237.429 105.479 237.252 104.732 237.252C104.331 237.252 103.925 237.327 103.514 237.476C103.104 237.616 102.735 237.821 102.408 238.092L101.876 237.322C102.287 236.977 102.749 236.72 103.262 236.552C103.776 236.384 104.298 236.3 104.83 236.3ZM104.424 243.174C104.91 243.174 105.348 243.053 105.74 242.81C106.142 242.567 106.454 242.255 106.678 241.872C106.902 241.48 107.014 241.083 107.014 240.682V240.458C106.305 240.346 105.53 240.29 104.69 240.29C103.225 240.29 102.492 240.78 102.492 241.76C102.492 242.217 102.66 242.567 102.996 242.81C103.332 243.053 103.808 243.174 104.424 243.174ZM113.82 244.14C113.073 244.14 112.396 243.972 111.79 243.636C111.183 243.3 110.707 242.838 110.362 242.25C110.016 241.653 109.844 240.976 109.844 240.22C109.844 239.464 110.016 238.792 110.362 238.204C110.707 237.607 111.183 237.14 111.79 236.804C112.396 236.468 113.073 236.3 113.82 236.3C114.38 236.3 114.907 236.403 115.402 236.608C115.906 236.804 116.344 237.103 116.718 237.504L115.962 238.148C115.663 237.831 115.336 237.602 114.982 237.462C114.627 237.322 114.235 237.252 113.806 237.252C113.255 237.252 112.756 237.373 112.308 237.616C111.869 237.859 111.524 238.204 111.272 238.652C111.02 239.1 110.894 239.618 110.894 240.206C110.894 240.803 111.02 241.326 111.272 241.774C111.524 242.222 111.874 242.567 112.322 242.81C112.77 243.053 113.274 243.174 113.834 243.174C114.263 243.174 114.65 243.104 114.996 242.964C115.341 242.815 115.668 242.581 115.976 242.264L116.718 242.894C116.344 243.305 115.906 243.617 115.402 243.832C114.907 244.037 114.38 244.14 113.82 244.14ZM117.372 236.426H123.854V237.392H121.138V244H120.088V237.392H117.372V236.426ZM129.678 236.3C130.36 236.3 130.98 236.468 131.54 236.804C132.11 237.14 132.553 237.611 132.87 238.218C133.197 238.815 133.36 239.487 133.36 240.234C133.36 240.99 133.197 241.667 132.87 242.264C132.553 242.852 132.114 243.314 131.554 243.65C130.994 243.977 130.369 244.14 129.678 244.14C129.025 244.14 128.428 244.005 127.886 243.734C127.354 243.463 126.93 243.076 126.612 242.572V246.394H125.576V236.426H126.612V237.854C126.93 237.359 127.359 236.977 127.9 236.706C128.442 236.435 129.034 236.3 129.678 236.3ZM129.524 243.16C130.056 243.16 130.537 243.039 130.966 242.796C131.396 242.544 131.727 242.199 131.96 241.76C132.203 241.312 132.324 240.803 132.324 240.234C132.324 239.655 132.203 239.142 131.96 238.694C131.727 238.246 131.396 237.896 130.966 237.644C130.537 237.392 130.056 237.266 129.524 237.266C128.964 237.266 128.465 237.392 128.026 237.644C127.588 237.887 127.242 238.232 126.99 238.68C126.738 239.128 126.612 239.641 126.612 240.22C126.612 240.799 126.738 241.312 126.99 241.76C127.242 242.208 127.588 242.553 128.026 242.796C128.465 243.039 128.964 243.16 129.524 243.16ZM138.825 244.14C138.06 244.14 137.374 243.972 136.767 243.636C136.17 243.3 135.699 242.833 135.353 242.236C135.017 241.639 134.849 240.962 134.849 240.206C134.849 239.459 135.017 238.792 135.353 238.204C135.699 237.607 136.175 237.14 136.781 236.804C137.388 236.468 138.069 236.3 138.825 236.3C139.591 236.3 140.277 236.468 140.883 236.804C141.49 237.14 141.961 237.602 142.297 238.19C142.643 238.778 142.815 239.445 142.815 240.192C142.815 240.948 142.643 241.625 142.297 242.222C141.961 242.819 141.49 243.291 140.883 243.636C140.277 243.972 139.591 244.14 138.825 244.14ZM138.839 243.174C139.399 243.174 139.899 243.048 140.337 242.796C140.785 242.544 141.135 242.194 141.387 241.746C141.639 241.298 141.765 240.785 141.765 240.206C141.765 239.627 141.639 239.114 141.387 238.666C141.135 238.218 140.785 237.873 140.337 237.63C139.889 237.378 139.385 237.252 138.825 237.252C138.265 237.252 137.761 237.378 137.313 237.63C136.875 237.873 136.529 238.218 136.277 238.666C136.025 239.114 135.899 239.627 135.899 240.206C135.899 240.785 136.025 241.298 136.277 241.746C136.529 242.194 136.879 242.544 137.327 242.796C137.775 243.048 138.279 243.174 138.839 243.174ZM150.471 239.674V236.426H151.521V244H150.471V240.612H145.767V244H144.731V236.426H145.767V239.674H150.471ZM156.551 236.3C157.615 236.3 158.418 236.561 158.959 237.084C159.51 237.597 159.785 238.335 159.785 239.296V244H158.735V242.572C158.493 242.992 158.115 243.361 157.601 243.678C157.097 243.986 156.505 244.14 155.823 244.14C155.021 244.14 154.381 243.925 153.905 243.496C153.439 243.067 153.205 242.507 153.205 241.816C153.205 241.088 153.453 240.505 153.947 240.066C154.442 239.627 155.184 239.408 156.173 239.408C156.92 239.408 157.774 239.459 158.735 239.562V239.31C158.735 238.638 158.539 238.129 158.147 237.784C157.765 237.429 157.2 237.252 156.453 237.252C156.052 237.252 155.646 237.327 155.235 237.476C154.825 237.616 154.456 237.821 154.129 238.092L153.597 237.322C154.008 236.977 154.47 236.72 154.983 236.552C155.497 236.384 156.019 236.3 156.551 236.3ZM156.145 243.174C156.631 243.174 157.069 243.053 157.461 242.81C157.863 242.567 158.175 242.255 158.399 241.872C158.623 241.48 158.735 241.083 158.735 240.682V240.458C158.026 240.346 157.251 240.29 156.411 240.29C154.946 240.29 154.213 240.78 154.213 241.76C154.213 242.217 154.381 242.567 154.717 242.81C155.053 243.053 155.529 243.174 156.145 243.174ZM166.688 240.108C167.276 240.201 167.734 240.416 168.06 240.752C168.387 241.088 168.55 241.503 168.55 241.998C168.55 242.623 168.298 243.113 167.794 243.468C167.3 243.823 166.618 244 165.75 244H161.998V236.426H165.582C166.385 236.426 167.015 236.599 167.472 236.944C167.939 237.28 168.172 237.742 168.172 238.33C168.172 238.769 168.042 239.142 167.78 239.45C167.519 239.758 167.155 239.977 166.688 240.108ZM163.034 237.378V239.716H165.568C166.063 239.716 166.446 239.613 166.716 239.408C166.996 239.203 167.136 238.909 167.136 238.526C167.136 238.171 166.996 237.891 166.716 237.686C166.436 237.481 166.021 237.378 165.47 237.378H163.034ZM165.708 243.048C166.278 243.048 166.712 242.945 167.01 242.74C167.318 242.535 167.472 242.241 167.472 241.858C167.472 241.494 167.318 241.209 167.01 241.004C166.712 240.799 166.301 240.696 165.778 240.696H163.034V243.048H165.708ZM169.257 236.426H175.739V237.392H173.023V244H171.973V237.392H169.257V236.426ZM180.457 238.848C181.493 238.848 182.305 239.077 182.893 239.534C183.49 239.991 183.789 240.626 183.789 241.438C183.789 242.231 183.495 242.857 182.907 243.314C182.319 243.771 181.512 244 180.485 244H177.461V236.426H178.497V238.848H180.457ZM180.457 243.146C181.166 243.146 181.722 242.997 182.123 242.698C182.524 242.399 182.725 241.979 182.725 241.438C182.725 240.887 182.524 240.463 182.123 240.164C181.722 239.856 181.162 239.702 180.443 239.702H178.497V243.146H180.457ZM186.729 244H185.693V236.426H186.729V244ZM28.7541 258.426V266H27.7041V259.266H23.0001V266H21.9641V258.426H28.7541ZM35.2126 258.3C35.8939 258.3 36.5146 258.468 37.0746 258.804C37.6439 259.14 38.0872 259.611 38.4046 260.218C38.7312 260.815 38.8946 261.487 38.8946 262.234C38.8946 262.99 38.7312 263.667 38.4046 264.264C38.0872 264.852 37.6486 265.314 37.0886 265.65C36.5286 265.977 35.9032 266.14 35.2126 266.14C34.5592 266.14 33.9619 266.005 33.4206 265.734C32.8886 265.463 32.4639 265.076 32.1466 264.572V268.394H31.1106V258.426H32.1466V259.854C32.4639 259.359 32.8932 258.977 33.4346 258.706C33.9759 258.435 34.5686 258.3 35.2126 258.3ZM35.0586 265.16C35.5906 265.16 36.0712 265.039 36.5006 264.796C36.9299 264.544 37.2612 264.199 37.4946 263.76C37.7372 263.312 37.8586 262.803 37.8586 262.234C37.8586 261.655 37.7372 261.142 37.4946 260.694C37.2612 260.246 36.9299 259.896 36.5006 259.644C36.0712 259.392 35.5906 259.266 35.0586 259.266C34.4986 259.266 33.9992 259.392 33.5606 259.644C33.1219 259.887 32.7766 260.232 32.5246 260.68C32.2726 261.128 32.1466 261.641 32.1466 262.22C32.1466 262.799 32.2726 263.312 32.5246 263.76C32.7766 264.208 33.1219 264.553 33.5606 264.796C33.9992 265.039 34.4986 265.16 35.0586 265.16ZM44.3596 266.14C43.5943 266.14 42.9083 265.972 42.3016 265.636C41.7043 265.3 41.2329 264.833 40.8876 264.236C40.5516 263.639 40.3836 262.962 40.3836 262.206C40.3836 261.459 40.5516 260.792 40.8876 260.204C41.2329 259.607 41.7089 259.14 42.3156 258.804C42.9223 258.468 43.6036 258.3 44.3596 258.3C45.1249 258.3 45.8109 258.468 46.4176 258.804C47.0243 259.14 47.4956 259.602 47.8316 260.19C48.1769 260.778 48.3496 261.445 48.3496 262.192C48.3496 262.948 48.1769 263.625 47.8316 264.222C47.4956 264.819 47.0243 265.291 46.4176 265.636C45.8109 265.972 45.1249 266.14 44.3596 266.14ZM44.3736 265.174C44.9336 265.174 45.4329 265.048 45.8716 264.796C46.3196 264.544 46.6696 264.194 46.9216 263.746C47.1736 263.298 47.2996 262.785 47.2996 262.206C47.2996 261.627 47.1736 261.114 46.9216 260.666C46.6696 260.218 46.3196 259.873 45.8716 259.63C45.4236 259.378 44.9196 259.252 44.3596 259.252C43.7996 259.252 43.2956 259.378 42.8476 259.63C42.4089 259.873 42.0636 260.218 41.8116 260.666C41.5596 261.114 41.4336 261.627 41.4336 262.206C41.4336 262.785 41.5596 263.298 41.8116 263.746C42.0636 264.194 42.4136 264.544 42.8616 264.796C43.3096 265.048 43.8136 265.174 44.3736 265.174ZM58.3989 265.16V258.426H59.4489V266H50.2649V258.426H51.3009V265.16H54.3389V258.426H55.3749V265.16H58.3989ZM67.8239 266H66.7739V259.266H63.1619L63.0779 263.13C63.0686 263.886 62.9799 264.474 62.8119 264.894C62.6533 265.305 62.4199 265.594 62.1119 265.762C61.8133 265.921 61.4166 266 60.9219 266V265.216C61.3046 265.207 61.5799 265.039 61.7479 264.712C61.9253 264.385 62.0186 263.83 62.0279 263.046L62.1399 258.426H67.8239V266ZM76.9331 258.426V266H75.8831V260.078L70.8711 266H70.0311V258.426H71.0811V264.32L76.0651 258.426H76.9331ZM86.9885 266.14C86.2232 266.14 85.5372 265.972 84.9305 265.636C84.3332 265.3 83.8618 264.833 83.5165 264.236C83.1805 263.639 83.0125 262.962 83.0125 262.206C83.0125 261.459 83.1805 260.792 83.5165 260.204C83.8618 259.607 84.3378 259.14 84.9445 258.804C85.5512 258.468 86.2325 258.3 86.9885 258.3C87.7538 258.3 88.4398 258.468 89.0465 258.804C89.6532 259.14 90.1245 259.602 90.4605 260.19C90.8058 260.778 90.9785 261.445 90.9785 262.192C90.9785 262.948 90.8058 263.625 90.4605 264.222C90.1245 264.819 89.6532 265.291 89.0465 265.636C88.4398 265.972 87.7538 266.14 86.9885 266.14ZM87.0025 265.174C87.5625 265.174 88.0618 265.048 88.5005 264.796C88.9485 264.544 89.2985 264.194 89.5505 263.746C89.8025 263.298 89.9285 262.785 89.9285 262.206C89.9285 261.627 89.8025 261.114 89.5505 260.666C89.2985 260.218 88.9485 259.873 88.5005 259.63C88.0525 259.378 87.5485 259.252 86.9885 259.252C86.4285 259.252 85.9245 259.378 85.4765 259.63C85.0378 259.873 84.6925 260.218 84.4405 260.666C84.1885 261.114 84.0625 261.627 84.0625 262.206C84.0625 262.785 84.1885 263.298 84.4405 263.746C84.6925 264.194 85.0425 264.544 85.4905 264.796C85.9385 265.048 86.4425 265.174 87.0025 265.174ZM96.4778 266.14C95.1804 266.14 94.1864 265.715 93.4958 264.866C92.8051 264.017 92.4598 262.813 92.4598 261.254C92.4598 258.155 93.8411 256.429 96.6038 256.074L97.1498 256.004C97.5324 255.967 97.8404 255.929 98.0738 255.892C98.3071 255.845 98.5451 255.785 98.7878 255.71V256.578C98.5544 256.662 98.2791 256.723 97.9618 256.76C97.6538 256.797 97.4671 256.821 97.4018 256.83C97.1778 256.839 96.9258 256.867 96.6458 256.914C95.4791 257.082 94.6624 257.549 94.1958 258.314C93.7384 259.07 93.5331 260.017 93.5798 261.156C93.6918 260.801 93.8878 260.461 94.1678 260.134C94.4571 259.807 94.8164 259.546 95.2458 259.35C95.6844 259.145 96.1698 259.042 96.7018 259.042C97.3644 259.042 97.9524 259.205 98.4658 259.532C98.9884 259.849 99.3898 260.283 99.6698 260.834C99.9591 261.375 100.104 261.973 100.104 262.626C100.104 263.345 99.9498 263.97 99.6418 264.502C99.3431 265.034 98.9184 265.44 98.3678 265.72C97.8171 266 97.1871 266.14 96.4778 266.14ZM96.4918 265.258C97.2571 265.258 97.8731 265.025 98.3398 264.558C98.8158 264.091 99.0538 263.452 99.0538 262.64C99.0538 262.155 98.9418 261.711 98.7178 261.31C98.4938 260.899 98.1764 260.577 97.7658 260.344C97.3644 260.101 96.9118 259.98 96.4078 259.98C95.9691 259.98 95.5398 260.087 95.1198 260.302C94.6998 260.517 94.3544 260.815 94.0838 261.198C93.8224 261.581 93.6918 262.015 93.6918 262.5C93.6918 262.864 93.7804 263.261 93.9578 263.69C94.1351 264.11 94.4291 264.479 94.8398 264.796C95.2598 265.104 95.8104 265.258 96.4918 265.258ZM107.151 258.426H108.299L104.995 266L104.687 266.714C104.407 267.358 104.071 267.82 103.679 268.1C103.296 268.389 102.802 268.534 102.195 268.534C101.934 268.534 101.663 268.492 101.383 268.408C101.112 268.333 100.888 268.24 100.711 268.128L101.047 267.358C101.402 267.545 101.77 267.638 102.153 267.638C102.517 267.638 102.811 267.545 103.035 267.358C103.259 267.181 103.469 266.882 103.665 266.462L103.875 265.986L100.571 258.426H101.719L104.435 264.796L107.151 258.426ZM115.282 258.426H116.332V266H115.282V263.018C114.862 263.223 114.433 263.396 113.994 263.536C113.565 263.676 113.066 263.746 112.496 263.746C111.591 263.746 110.877 263.457 110.354 262.878C109.832 262.299 109.57 261.501 109.57 260.484V258.426H110.62V260.302C110.62 261.077 110.821 261.693 111.222 262.15C111.633 262.607 112.193 262.836 112.902 262.836C113.724 262.836 114.517 262.612 115.282 262.164V258.426ZM119.309 262.612C119.374 263.377 119.678 263.998 120.219 264.474C120.77 264.941 121.456 265.174 122.277 265.174C123.22 265.174 123.966 264.866 124.517 264.25L125.203 264.866C124.83 265.267 124.391 265.58 123.887 265.804C123.392 266.019 122.837 266.126 122.221 266.126C121.456 266.126 120.77 265.958 120.163 265.622C119.566 265.286 119.094 264.824 118.749 264.236C118.413 263.639 118.245 262.962 118.245 262.206C118.245 261.459 118.404 260.792 118.721 260.204C119.048 259.607 119.505 259.14 120.093 258.804C120.681 258.468 121.353 258.3 122.109 258.3C122.79 258.3 123.397 258.454 123.929 258.762C124.461 259.07 124.876 259.504 125.175 260.064C125.474 260.624 125.623 261.263 125.623 261.982C125.623 262.15 125.604 262.36 125.567 262.612H119.309ZM122.109 259.252C121.344 259.252 120.709 259.476 120.205 259.924C119.71 260.372 119.416 260.965 119.323 261.702H124.601C124.526 260.918 124.265 260.316 123.817 259.896C123.378 259.467 122.809 259.252 122.109 259.252ZM133.073 261.674V258.426H134.123V266H133.073V262.612H128.369V266H127.333V258.426H128.369V261.674H133.073ZM143.242 258.426V266H142.192V260.078L137.18 266H136.34V258.426H137.39V264.32L142.374 258.426H143.242ZM146.229 262.612C146.294 263.377 146.598 263.998 147.139 264.474C147.69 264.941 148.376 265.174 149.197 265.174C150.14 265.174 150.886 264.866 151.437 264.25L152.123 264.866C151.75 265.267 151.311 265.58 150.807 265.804C150.312 266.019 149.757 266.126 149.141 266.126C148.376 266.126 147.69 265.958 147.083 265.622C146.486 265.286 146.014 264.824 145.669 264.236C145.333 263.639 145.165 262.962 145.165 262.206C145.165 261.459 145.324 260.792 145.641 260.204C145.968 259.607 146.425 259.14 147.013 258.804C147.601 258.468 148.273 258.3 149.029 258.3C149.71 258.3 150.317 258.454 150.849 258.762C151.381 259.07 151.796 259.504 152.095 260.064C152.394 260.624 152.543 261.263 152.543 261.982C152.543 262.15 152.524 262.36 152.487 262.612H146.229ZM149.029 259.252C148.264 259.252 147.629 259.476 147.125 259.924C146.63 260.372 146.336 260.965 146.243 261.702H151.521C151.446 260.918 151.185 260.316 150.737 259.896C150.298 259.467 149.729 259.252 149.029 259.252ZM164.135 258.426H165.283L161.979 266L161.671 266.714C161.391 267.358 161.055 267.82 160.663 268.1C160.281 268.389 159.786 268.534 159.179 268.534C158.918 268.534 158.647 268.492 158.367 268.408C158.097 268.333 157.873 268.24 157.695 268.128L158.031 267.358C158.386 267.545 158.755 267.638 159.137 267.638C159.501 267.638 159.795 267.545 160.019 267.358C160.243 267.181 160.453 266.882 160.649 266.462L160.859 265.986L157.555 258.426H158.703L161.419 264.796L164.135 258.426ZM176.871 266H175.821V259.266H172.209L172.125 263.13C172.115 263.886 172.027 264.474 171.859 264.894C171.7 265.305 171.467 265.594 171.159 265.762C170.86 265.921 170.463 266 169.969 266V265.216C170.351 265.207 170.627 265.039 170.795 264.712C170.972 264.385 171.065 263.83 171.075 263.046L171.187 258.426H176.871V266ZM184.944 258.426H186.092L182.788 266L182.48 266.714C182.2 267.358 181.864 267.82 181.472 268.1C181.089 268.389 180.595 268.534 179.988 268.534C179.727 268.534 179.456 268.492 179.176 268.408C178.905 268.333 178.681 268.24 178.504 268.128L178.84 267.358C179.195 267.545 179.563 267.638 179.946 267.638C180.31 267.638 180.604 267.545 180.828 267.358C181.052 267.181 181.262 266.882 181.458 266.462L181.668 265.986L178.364 258.426H179.512L182.228 264.796L184.944 258.426ZM193.075 258.426H194.125V266H193.075V263.018C192.655 263.223 192.226 263.396 191.787 263.536C191.358 263.676 190.858 263.746 190.289 263.746C189.384 263.746 188.67 263.457 188.147 262.878C187.624 262.299 187.363 261.501 187.363 260.484V258.426H188.413V260.302C188.413 261.077 188.614 261.693 189.015 262.15C189.426 262.607 189.986 262.836 190.695 262.836C191.516 262.836 192.31 262.612 193.075 262.164V258.426ZM204.606 265.16V258.426H205.656V266H196.472V258.426H197.508V265.16H200.546V258.426H201.582V265.16H204.606ZM214.773 258.426V266H213.723V260.078L208.711 266H207.871V258.426H208.921V264.32L213.905 258.426H214.773ZM220.714 262.122L223.808 266H222.59L220.07 262.864L217.55 266H216.36L219.454 262.136L216.486 258.426H217.732L220.084 261.422L222.436 258.426H223.654L220.714 262.122ZM61.8413 288H60.6793L57.9913 284.696H56.3253V288H55.2893V280.426H56.3253V283.758H58.0053L60.4553 280.426H61.6313L58.7473 284.164L61.8413 288ZM66.2141 288.14C65.4488 288.14 64.7628 287.972 64.1561 287.636C63.5588 287.3 63.0874 286.833 62.7421 286.236C62.4061 285.639 62.2381 284.962 62.2381 284.206C62.2381 283.459 62.4061 282.792 62.7421 282.204C63.0874 281.607 63.5634 281.14 64.1701 280.804C64.7768 280.468 65.4581 280.3 66.2141 280.3C66.9794 280.3 67.6654 280.468 68.2721 280.804C68.8788 281.14 69.3501 281.602 69.6861 282.19C70.0314 282.778 70.2041 283.445 70.2041 284.192C70.2041 284.948 70.0314 285.625 69.6861 286.222C69.3501 286.819 68.8788 287.291 68.2721 287.636C67.6654 287.972 66.9794 288.14 66.2141 288.14ZM66.2281 287.174C66.7881 287.174 67.2874 287.048 67.7261 286.796C68.1741 286.544 68.5241 286.194 68.7761 285.746C69.0281 285.298 69.1541 284.785 69.1541 284.206C69.1541 283.627 69.0281 283.114 68.7761 282.666C68.5241 282.218 68.1741 281.873 67.7261 281.63C67.2781 281.378 66.7741 281.252 66.2141 281.252C65.6541 281.252 65.1501 281.378 64.7021 281.63C64.2634 281.873 63.9181 282.218 63.6661 282.666C63.4141 283.114 63.2881 283.627 63.2881 284.206C63.2881 284.785 63.4141 285.298 63.6661 285.746C63.9181 286.194 64.2681 286.544 64.7161 286.796C65.1641 287.048 65.6681 287.174 66.2281 287.174ZM75.6614 288.14C74.9147 288.14 74.238 287.972 73.6314 287.636C73.0247 287.3 72.5487 286.838 72.2034 286.25C71.858 285.653 71.6854 284.976 71.6854 284.22C71.6854 283.464 71.858 282.792 72.2034 282.204C72.5487 281.607 73.0247 281.14 73.6314 280.804C74.238 280.468 74.9147 280.3 75.6614 280.3C76.2214 280.3 76.7487 280.403 77.2434 280.608C77.7474 280.804 78.186 281.103 78.5594 281.504L77.8034 282.148C77.5047 281.831 77.178 281.602 76.8234 281.462C76.4687 281.322 76.0767 281.252 75.6474 281.252C75.0967 281.252 74.5974 281.373 74.1494 281.616C73.7107 281.859 73.3654 282.204 73.1134 282.652C72.8614 283.1 72.7354 283.618 72.7354 284.206C72.7354 284.803 72.8614 285.326 73.1134 285.774C73.3654 286.222 73.7154 286.567 74.1634 286.81C74.6114 287.053 75.1154 287.174 75.6754 287.174C76.1047 287.174 76.492 287.104 76.8374 286.964C77.1827 286.815 77.5094 286.581 77.8174 286.264L78.5594 286.894C78.186 287.305 77.7474 287.617 77.2434 287.832C76.7487 288.037 76.2214 288.14 75.6614 288.14ZM88.4594 280.426L88.4734 288H87.4234V282.176L84.4834 286.418H84.1894L81.2494 282.176V288H80.1994V280.426H81.2214L84.3294 284.948L87.4374 280.426H88.4594ZM94.3645 288.14C93.5992 288.14 92.9132 287.972 92.3065 287.636C91.7092 287.3 91.2378 286.833 90.8925 286.236C90.5565 285.639 90.3885 284.962 90.3885 284.206C90.3885 283.459 90.5565 282.792 90.8925 282.204C91.2378 281.607 91.7138 281.14 92.3205 280.804C92.9272 280.468 93.6085 280.3 94.3645 280.3C95.1298 280.3 95.8158 280.468 96.4225 280.804C97.0292 281.14 97.5005 281.602 97.8365 282.19C98.1818 282.778 98.3545 283.445 98.3545 284.192C98.3545 284.948 98.1818 285.625 97.8365 286.222C97.5005 286.819 97.0292 287.291 96.4225 287.636C95.8158 287.972 95.1298 288.14 94.3645 288.14ZM94.3785 287.174C94.9385 287.174 95.4378 287.048 95.8765 286.796C96.3245 286.544 96.6745 286.194 96.9265 285.746C97.1785 285.298 97.3045 284.785 97.3045 284.206C97.3045 283.627 97.1785 283.114 96.9265 282.666C96.6745 282.218 96.3245 281.873 95.8765 281.63C95.4285 281.378 94.9245 281.252 94.3645 281.252C93.8045 281.252 93.3005 281.378 92.8525 281.63C92.4138 281.873 92.0685 282.218 91.8165 282.666C91.5645 283.114 91.4385 283.627 91.4385 284.206C91.4385 284.785 91.5645 285.298 91.8165 285.746C92.0685 286.194 92.4185 286.544 92.8665 286.796C93.3145 287.048 93.8185 287.174 94.3785 287.174ZM106.01 283.674V280.426H107.06V288H106.01V284.612H101.306V288H100.27V280.426H101.306V283.674H106.01ZM112.09 280.3C113.154 280.3 113.957 280.561 114.498 281.084C115.049 281.597 115.324 282.335 115.324 283.296V288H114.274V286.572C114.032 286.992 113.654 287.361 113.14 287.678C112.636 287.986 112.044 288.14 111.362 288.14C110.56 288.14 109.92 287.925 109.444 287.496C108.978 287.067 108.744 286.507 108.744 285.816C108.744 285.088 108.992 284.505 109.486 284.066C109.981 283.627 110.723 283.408 111.712 283.408C112.459 283.408 113.313 283.459 114.274 283.562V283.31C114.274 282.638 114.078 282.129 113.686 281.784C113.304 281.429 112.739 281.252 111.992 281.252C111.591 281.252 111.185 281.327 110.774 281.476C110.364 281.616 109.995 281.821 109.668 282.092L109.136 281.322C109.547 280.977 110.009 280.72 110.522 280.552C111.036 280.384 111.558 280.3 112.09 280.3ZM111.684 287.174C112.17 287.174 112.608 287.053 113 286.81C113.402 286.567 113.714 286.255 113.938 285.872C114.162 285.48 114.274 285.083 114.274 284.682V284.458C113.565 284.346 112.79 284.29 111.95 284.29C110.485 284.29 109.752 284.78 109.752 285.76C109.752 286.217 109.92 286.567 110.256 286.81C110.592 287.053 111.068 287.174 111.684 287.174ZM122.227 284.108C122.815 284.201 123.273 284.416 123.599 284.752C123.926 285.088 124.089 285.503 124.089 285.998C124.089 286.623 123.837 287.113 123.333 287.468C122.839 287.823 122.157 288 121.289 288H117.537V280.426H121.121C121.924 280.426 122.554 280.599 123.011 280.944C123.478 281.28 123.711 281.742 123.711 282.33C123.711 282.769 123.581 283.142 123.319 283.45C123.058 283.758 122.694 283.977 122.227 284.108ZM118.573 281.378V283.716H121.107C121.602 283.716 121.985 283.613 122.255 283.408C122.535 283.203 122.675 282.909 122.675 282.526C122.675 282.171 122.535 281.891 122.255 281.686C121.975 281.481 121.56 281.378 121.009 281.378H118.573ZM121.247 287.048C121.817 287.048 122.251 286.945 122.549 286.74C122.857 286.535 123.011 286.241 123.011 285.858C123.011 285.494 122.857 285.209 122.549 285.004C122.251 284.799 121.84 284.696 121.317 284.696H118.573V287.048H121.247ZM124.796 280.426H131.278V281.392H128.562V288H127.512V281.392H124.796V280.426ZM135.954 288.14C135.189 288.14 134.503 287.972 133.896 287.636C133.299 287.3 132.828 286.833 132.482 286.236C132.146 285.639 131.978 284.962 131.978 284.206C131.978 283.459 132.146 282.792 132.482 282.204C132.828 281.607 133.304 281.14 133.91 280.804C134.517 280.468 135.198 280.3 135.954 280.3C136.72 280.3 137.406 280.468 138.012 280.804C138.619 281.14 139.09 281.602 139.426 282.19C139.772 282.778 139.944 283.445 139.944 284.192C139.944 284.948 139.772 285.625 139.426 286.222C139.09 286.819 138.619 287.291 138.012 287.636C137.406 287.972 136.72 288.14 135.954 288.14ZM135.968 287.174C136.528 287.174 137.028 287.048 137.466 286.796C137.914 286.544 138.264 286.194 138.516 285.746C138.768 285.298 138.894 284.785 138.894 284.206C138.894 283.627 138.768 283.114 138.516 282.666C138.264 282.218 137.914 281.873 137.466 281.63C137.018 281.378 136.514 281.252 135.954 281.252C135.394 281.252 134.89 281.378 134.442 281.63C134.004 281.873 133.658 282.218 133.406 282.666C133.154 283.114 133.028 283.627 133.028 284.206C133.028 284.785 133.154 285.298 133.406 285.746C133.658 286.194 134.008 286.544 134.456 286.796C134.904 287.048 135.408 287.174 135.968 287.174ZM146.55 284.108C147.138 284.201 147.595 284.416 147.922 284.752C148.248 285.088 148.412 285.503 148.412 285.998C148.412 286.623 148.16 287.113 147.656 287.468C147.161 287.823 146.48 288 145.612 288H141.86V280.426H145.444C146.246 280.426 146.876 280.599 147.334 280.944C147.8 281.28 148.034 281.742 148.034 282.33C148.034 282.769 147.903 283.142 147.642 283.45C147.38 283.758 147.016 283.977 146.55 284.108ZM142.896 281.378V283.716H145.43C145.924 283.716 146.307 283.613 146.578 283.408C146.858 283.203 146.998 282.909 146.998 282.526C146.998 282.171 146.858 281.891 146.578 281.686C146.298 281.481 145.882 281.378 145.332 281.378H142.896ZM145.57 287.048C146.139 287.048 146.573 286.945 146.872 286.74C147.18 286.535 147.334 286.241 147.334 285.858C147.334 285.494 147.18 285.209 146.872 285.004C146.573 284.799 146.162 284.696 145.64 284.696H142.896V287.048H145.57ZM162.752 280.426L162.766 288H161.716V282.176L158.776 286.418H158.482L155.542 282.176V288H154.492V280.426H155.514L158.622 284.948L161.73 280.426H162.752ZM171.877 280.426V288H170.827V282.078L165.815 288H164.975V280.426H166.025V286.32L171.009 280.426H171.877ZM178.337 280.3C179.018 280.3 179.639 280.468 180.199 280.804C180.768 281.14 181.211 281.611 181.529 282.218C181.855 282.815 182.019 283.487 182.019 284.234C182.019 284.99 181.855 285.667 181.529 286.264C181.211 286.852 180.773 287.314 180.213 287.65C179.653 287.977 179.027 288.14 178.337 288.14C177.683 288.14 177.086 288.005 176.545 287.734C176.013 287.463 175.588 287.076 175.271 286.572V290.394H174.235V280.426H175.271V281.854C175.588 281.359 176.017 280.977 176.559 280.706C177.1 280.435 177.693 280.3 178.337 280.3ZM178.183 287.16C178.715 287.16 179.195 287.039 179.625 286.796C180.054 286.544 180.385 286.199 180.619 285.76C180.861 285.312 180.983 284.803 180.983 284.234C180.983 283.655 180.861 283.142 180.619 282.694C180.385 282.246 180.054 281.896 179.625 281.644C179.195 281.392 178.715 281.266 178.183 281.266C177.623 281.266 177.123 281.392 176.685 281.644C176.246 281.887 175.901 282.232 175.649 282.68C175.397 283.128 175.271 283.641 175.271 284.22C175.271 284.799 175.397 285.312 175.649 285.76C175.901 286.208 176.246 286.553 176.685 286.796C177.123 287.039 177.623 287.16 178.183 287.16ZM186.616 280.3C187.68 280.3 188.482 280.561 189.024 281.084C189.574 281.597 189.85 282.335 189.85 283.296V288H188.8V286.572C188.557 286.992 188.179 287.361 187.666 287.678C187.162 287.986 186.569 288.14 185.888 288.14C185.085 288.14 184.446 287.925 183.97 287.496C183.503 287.067 183.27 286.507 183.27 285.816C183.27 285.088 183.517 284.505 184.012 284.066C184.506 283.627 185.248 283.408 186.238 283.408C186.984 283.408 187.838 283.459 188.8 283.562V283.31C188.8 282.638 188.604 282.129 188.212 281.784C187.829 281.429 187.264 281.252 186.518 281.252C186.116 281.252 185.71 281.327 185.3 281.476C184.889 281.616 184.52 281.821 184.194 282.092L183.662 281.322C184.072 280.977 184.534 280.72 185.048 280.552C185.561 280.384 186.084 280.3 186.616 280.3ZM186.21 287.174C186.695 287.174 187.134 287.053 187.526 286.81C187.927 286.567 188.24 286.255 188.464 285.872C188.688 285.48 188.8 285.083 188.8 284.682V284.458C188.09 284.346 187.316 284.29 186.476 284.29C185.01 284.29 184.278 284.78 184.278 285.76C184.278 286.217 184.446 286.567 184.782 286.81C185.118 287.053 185.594 287.174 186.21 287.174Z" fill="#4B506B"/>
</svg>
