<svg width="9" height="17" viewBox="0 0 9 17" fill="none" xmlns="http://www.w3.org/2000/svg">
<path d="M7.88007 0H6.10932C4.75454 0 3.78143 0.321579 3.19004 0.964521C2.59846 1.60768 2.30294 2.55488 2.30294 3.80653V4.99961C2.30294 5.31491 2.0474 5.57045 1.7321 5.57045H1.12016C0.804857 5.57045 0.549316 5.82599 0.549316 6.14129V7.92914C0.549316 8.24444 0.804857 8.49998 1.12016 8.49998H1.7321C2.0474 8.49998 2.30294 8.75553 2.30294 9.07082V16.4291C2.30294 16.7444 2.55848 17 2.87378 17H5.24961C5.56491 17 5.82045 16.7444 5.82045 16.4291V9.07086C5.82045 8.75553 6.07602 8.50002 6.39129 8.50002H7.59117C7.9065 8.50002 8.18887 8.24581 8.22199 7.93241L8.41149 6.13806C8.4446 5.8245 8.21589 5.57045 7.90056 5.57045H6.3911C6.0758 5.57045 5.82026 5.31491 5.82026 4.99961V4.10567C5.82026 3.88569 5.83055 3.7154 5.85126 3.59496C5.87181 3.47469 5.91823 3.35614 5.99055 3.23911C6.06265 3.1223 6.17968 3.04143 6.34123 2.99669C6.50275 2.95198 6.71778 2.92954 6.98588 2.92954H7.87982C8.19512 2.92954 8.45063 2.67399 8.45063 2.3587V0.57084C8.45088 0.255541 8.19534 0 7.88007 0Z" fill="#6833FF"/>
</svg>
