<svg width="13" height="11" viewBox="0 0 13 11" fill="none" xmlns="http://www.w3.org/2000/svg">
<path d="M8.39266 10.2183L12.9218 5.68886C13.0262 5.5845 13.0262 5.41533 12.9218 5.31096L8.39266 0.781642C8.2883 0.677278 8.11913 0.677278 8.01476 0.781642L6.80797 1.9883C6.75786 2.03841 6.72966 2.1063 6.72966 2.17725C6.72966 2.24808 6.75786 2.31609 6.80797 2.3662L8.74985 4.30835L0.267414 4.30835C0.119889 4.30835 0.000158147 4.42808 0.000158141 4.57561L0.00015806 6.42435C0.000158053 6.57188 0.119889 6.69161 0.267414 6.69161L8.74972 6.69161L6.80783 8.63349C6.70761 8.73371 6.70761 8.91117 6.80783 9.01139L8.01463 10.2182C8.06474 10.2683 8.13276 10.2965 8.20358 10.2965C8.2744 10.2966 8.34255 10.2684 8.39266 10.2183Z" fill="white"/>
</svg>
