<svg width="50" height="50" viewBox="0 0 50 50" fill="none" xmlns="http://www.w3.org/2000/svg">
<circle cx="25" cy="25" r="24.5" stroke="#DFE2F2"/>
<g clip-path="url(#clip0)">
<path d="M30.8766 28.1894C30.0195 28.1894 29.1779 28.0553 28.3804 27.7918C27.9896 27.6585 27.5092 27.7808 27.2707 28.0257L25.6965 29.2141C23.8709 28.2396 22.7464 27.1154 21.7852 25.3035L22.9386 23.7704C23.2382 23.4711 23.3457 23.034 23.2169 22.6238C22.9522 21.8221 22.8178 20.9809 22.8178 20.1234C22.8178 19.504 22.3139 19 21.6944 19H19.1234C18.504 19 18 19.504 18 20.1234C18 27.2237 23.7764 33 30.8766 33C31.4961 33 32 32.496 32 31.8766V29.3127C32 28.6934 31.496 28.1894 30.8766 28.1894Z" fill="#4B506B"/>
</g>
<defs>
<clipPath id="clip0">
<rect width="14" height="14" fill="white" transform="translate(18 19)"/>
</clipPath>
</defs>
</svg>
