<svg width="36" height="36" viewBox="0 0 36 36" fill="none" xmlns="http://www.w3.org/2000/svg">
<circle cx="18" cy="18" r="17.5" stroke="#E6D6FF"/>
<path d="M20.2224 17.6878L16.6623 14.1278C16.58 14.0454 16.47 14 16.3528 14C16.2356 14 16.1257 14.0454 16.0434 14.1278L15.7812 14.3899C15.6106 14.5607 15.6106 14.8383 15.7812 15.0088L18.7707 17.9983L15.7779 20.9912C15.6955 21.0736 15.6501 21.1834 15.6501 21.3006C15.6501 21.4178 15.6955 21.5277 15.7779 21.6101L16.0401 21.8722C16.1225 21.9546 16.2323 22 16.3495 22C16.4667 22 16.5766 21.9546 16.659 21.8722L20.2224 18.3089C20.3049 18.2262 20.3503 18.1159 20.35 17.9985C20.3503 17.8807 20.3049 17.7704 20.2224 17.6878Z" fill="#6833FF"/>
</svg>
