<svg width="70" height="70" viewBox="0 0 70 70" xmlns="http://www.w3.org/2000/svg">
<g clip-path="url(#clip0)">
<path d="M34.2358 61.3992C34.2358 57.7131 31.2478 54.7251 27.5623 54.7251C23.8762 54.7251 20.8882 57.7131 20.8882 61.3986C20.8882 65.0847 23.8762 68.0727 27.5623 68.0727C31.2458 68.0687 34.2318 65.0834 34.2358 61.3992ZM23.2553 61.3992C23.2553 59.0202 25.1833 57.0922 27.5623 57.0922C29.9407 57.0922 31.8686 59.0202 31.8686 61.3986C31.8686 63.7776 29.9407 65.7055 27.5623 65.7055C25.1846 65.7029 23.258 63.7763 23.2553 61.3992Z" />
<path d="M52.2745 68.0727C55.9607 68.0733 58.9487 65.0853 58.9487 61.3992C58.9493 57.7131 55.9613 54.7251 52.2752 54.7251C48.5891 54.7251 45.6011 57.7131 45.6011 61.3992C45.6057 65.0827 48.5904 68.0681 52.2745 68.0727ZM52.2745 57.0922C54.6529 57.0922 56.5815 59.0202 56.5815 61.3986C56.5822 63.7769 54.6536 65.7055 52.2752 65.7055C49.8968 65.7055 47.9682 63.7776 47.9682 61.3992C47.9709 59.0222 49.8975 57.0956 52.2745 57.0922Z" />
<path d="M1.18357 4.22706H8.4032C10.7789 4.21781 12.8046 5.94759 13.1665 8.29623L18.8816 44.397C19.4212 47.8976 22.4409 50.4767 25.983 50.4628H61.3091C61.9623 50.4628 62.4927 49.9325 62.4927 49.2793C62.4927 48.6254 61.9623 48.0957 61.3091 48.0957H25.983C23.6073 48.1049 21.5816 46.3745 21.2197 44.0265L20.2481 37.8887H56.4282C59.4915 37.8874 62.2179 35.9469 63.2218 33.0534L69.9342 13.6804C70.0604 13.3185 70.0029 12.9182 69.781 12.6058C69.5584 12.2941 69.1991 12.1085 68.816 12.1085H16.1664L15.5046 7.92571C14.965 4.4252 11.9453 1.84605 8.4032 1.85992H1.18357C0.5297 1.85992 0 2.39028 0 3.04349C0 3.69736 0.5297 4.22706 1.18357 4.22706ZM67.153 14.4763L60.9855 32.278C60.3118 34.2192 58.4829 35.5209 56.4282 35.5216H19.873L16.5409 14.4756L67.153 14.4763Z"/>
</g>
</svg>
