<svg width="477" height="477" viewBox="0 0 477 477" fill="none" xmlns="http://www.w3.org/2000/svg">
<path d="M121.586 226.359C124.784 227.626 125.619 231.729 127.911 234.295C128.821 235.316 129.974 236.084 131.109 236.844C140.746 243.297 151.386 250.023 162.94 249.034C166.023 248.769 169.719 247.174 169.786 244.078C169.834 241.879 167.944 240.152 166.089 238.964C155.259 232.034 140.22 232.158 131.528 222.684C128.909 219.831 126.657 216.002 122.836 215.375C122.417 218.652 121.988 221.924 121.586 226.359Z" fill="#DFE2F2"/>
<path d="M97.0695 257.134C102.352 258.23 107.219 260.906 111.397 264.32C115.571 267.739 119.095 271.882 122.328 276.201C118.274 267.014 111.22 259.179 102.506 254.188C101.919 253.853 101.265 253.517 100.598 253.632C99.1498 253.879 98.6374 256.004 97.0695 257.134Z" fill="#DFE2F2"/>
<path d="M80.613 272.787C88.5674 272.756 96.5262 273.931 104.132 276.258C106.415 276.96 108.738 277.773 111.123 277.658C108.416 274.505 104.3 273.012 100.373 271.647C95.7975 270.053 91.1379 268.445 86.2972 268.273C85.6524 268.251 84.9899 268.255 84.3804 268.476C83.0112 268.971 82.2471 270.402 80.613 272.787Z" fill="#DFE2F2"/>
<path d="M74.306 281.13C79.5706 280.352 84.9236 280.207 90.2236 280.697C90.5019 280.291 89.9851 279.809 89.539 279.602C87.1364 278.462 84.5791 277.654 81.96 277.203C80.8426 277.013 79.6943 276.885 78.5813 277.106C77.4683 277.331 76.3906 277.945 74.306 281.13Z" fill="#DFE2F2"/>
<path d="M69.695 289.835C76.6468 288.528 83.7709 288.13 90.8243 288.656C91.6149 287.799 90.7846 286.306 89.6672 285.966C88.5542 285.626 87.3661 285.997 86.2133 286.174C81.7525 286.858 77.0443 284.601 69.695 289.835Z" fill="#DFE2F2"/>
<path d="M91.4073 303.562C88.5188 302.506 85.3344 302.846 82.2781 303.2C77.5743 303.743 72.8352 304.295 68.3258 305.731C67.9946 305.837 67.6368 305.965 67.4469 306.256C67.2437 306.565 67.2835 306.967 67.2835 307.338C67.2791 308.46 66.8109 309.524 66.3516 310.549C65.4903 312.47 64.6291 314.392 63.7678 316.308C68.0255 313.367 72.3185 310.408 77.0973 308.42C81.6509 306.526 86.5976 305.554 91.4073 303.562Z" fill="#DFE2F2"/>
<path d="M35.8545 368.549C38.9771 374.763 46.3353 377.811 53.2827 378.159C60.2301 378.508 67.0803 376.711 73.9703 375.779C80.03 374.957 86.1824 374.807 92.2774 375.333C93.2668 375.417 94.2914 375.532 95.1482 376.035C96.0051 376.539 96.6455 377.546 96.4158 378.513C87.1806 381.781 77.7731 384.564 68.2507 386.851C65.2562 387.571 62.2132 388.243 59.1348 388.194C53.9275 388.11 48.9941 385.968 44.3301 383.654C42.0334 382.514 39.7323 381.3 37.8817 379.524C36.0312 377.749 34.6664 375.32 35.8545 368.549Z" fill="#DFE2F2"/>
<path d="M83.3911 392.019C86.4253 390.637 89.9321 391.078 93.2579 391.348C106.194 392.394 119.162 390.341 132.129 389.797C154.654 388.857 177.294 392.483 199.708 390.071C171.049 401.661 138.577 396.409 108.063 401.36C103.209 402.146 98.2973 403.198 93.4169 402.61C88.5276 402.018 83.5501 399.399 83.3911 392.019Z" fill="#DFE2F2"/>
<path d="M262.854 375.593C271.78 379.67 282.322 378.628 291.562 375.315C297.683 373.12 303.606 369.856 307.709 364.812C310.62 361.23 312.475 356.924 314.299 352.684C317.876 357.458 321.03 363.461 319.29 369.167C318.344 372.263 316.061 374.785 313.544 376.821C306.106 382.845 295.992 385.429 286.575 383.716C280.745 382.66 275.079 380.041 262.854 375.593Z" fill="#DFE2F2"/>
<path d="M265.689 301.194C275.45 302.89 284.862 306.574 293.183 311.953C291.677 309.286 290.171 306.618 288.664 303.95C288.307 303.319 287.94 302.678 287.397 302.201C286.929 301.791 286.35 301.526 285.78 301.27C282.6 299.83 279.35 298.368 275.878 298.032C273.188 297.767 270.481 298.196 265.689 301.194Z" fill="#DFE2F2"/>
<path d="M266.36 291.633C273.776 291.823 281.134 293.93 287.525 297.693C287.017 295.378 286.509 293.068 286.006 290.754C282.91 291.2 279.769 291.363 276.642 291.249" fill="#DFE2F2"/>
<path d="M266.365 286.001C272.133 285.489 277.777 287.812 283.563 288.082C283.426 286.394 282.923 284.734 282.101 283.254C281.969 283.016 281.819 282.768 281.576 282.645C281.293 282.499 280.953 282.543 280.639 282.596C275.816 283.4 271.069 284.641 266.365 286.001Z" fill="#DFE2F2"/>
<path d="M265.826 279.019C270.437 278.564 275.123 278.873 279.637 279.924C278.692 278.295 277.627 276.735 276.457 275.26C273.745 275.773 271.033 276.289 265.826 279.019Z" fill="#DFE2F2"/>
<path d="M244.723 276.059C247.439 272.8 251.229 270.561 255.221 269.121C259.214 267.681 263.436 266.992 267.641 266.409C268.524 266.285 269.443 266.17 270.291 266.44C272.393 267.102 273.118 269.651 273.52 271.815C264.987 270.547 255.875 270.883 244.723 276.059Z" fill="#DFE2F2"/>
<path d="M235.554 276.36C235.678 271.289 237.811 266.427 240.788 262.328C243.769 258.225 247.567 254.798 251.428 251.507C251.794 251.194 252.187 250.871 252.664 250.814C253.296 250.739 253.874 251.141 254.365 251.543C256.087 252.947 257.637 254.564 258.962 256.348C249.736 258.539 241.706 265.3 235.554 276.36Z" fill="#DFE2F2"/>
<path d="M232.776 276.4C230.925 265.327 234.538 253.477 242.245 245.319C242.705 244.834 243.221 244.334 243.875 244.211C244.436 244.105 245.01 244.286 245.531 244.507C247.143 245.191 248.579 246.304 249.643 247.696C241.07 252.519 234.892 261.392 232.776 276.4Z" fill="#DFE2F2"/>
<path d="M183.437 261.1C202.168 258.561 220.259 251.459 235.717 240.581C236.548 241.261 237.383 241.936 238.213 242.617C233.929 250.461 226.712 256.657 218.307 259.696C209.187 262.999 199.2 262.598 183.437 261.1Z" fill="#DFE2F2"/>
<path d="M262.986 35.894C163.465 35.894 82.786 115.977 82.786 214.769C82.786 231.398 85.0738 247.497 89.3536 262.774C90.9657 261.466 92.7765 260.429 94.9186 259.841C96.3717 258.494 97.8159 257.134 99.4192 256.078C99.7902 254.788 100.232 253.552 101.027 252.399C104.308 247.638 109.904 245.324 114.979 242.952C116.185 242.386 117.422 241.909 118.543 241.181C118.945 240.92 119.325 240.633 119.723 240.368C119.917 240.2 120.111 240.028 120.288 239.842C120.482 239.644 120.668 239.436 120.853 239.229C121.034 238.911 121.732 237.418 121.564 238.027C121.931 236.91 122.222 235.748 122.487 234.609C122.677 233.796 122.156 233.862 122.306 233.045C122.315 233.001 122.987 232.082 122.995 232.043C123.013 231.605 121.586 230.947 121.591 230.514C121.617 229.07 121.392 229.45 121.591 228.05C120.314 225.74 121.9 221.186 123.424 219.097C123.592 218.868 123.759 218.634 123.932 218.404C124.002 218.285 124.073 218.17 124.13 218.077C124.201 217.878 124.281 217.649 124.298 217.578C124.342 217.401 124.378 217.229 124.4 217.092C124.44 216.69 124.479 216.288 124.51 215.886C124.55 215.387 124.625 214.902 124.736 214.438C124.214 214.049 123.711 213.638 123.238 213.188C121.609 211.576 120.372 209.473 119.206 207.508C117.316 204.332 115.332 201.148 113.831 197.765C112.245 194.201 109.772 191.639 109.701 187.929C109.361 187.09 109.829 185.504 109.701 184.515C109.772 185.204 109.807 183.587 109.701 182.757C109.569 181.891 110.77 182.125 110.677 181.255C110.607 180.376 110.58 179.498 110.629 178.619C110.748 176.494 111.115 174.379 111.742 172.343C112.819 168.831 114.529 165.598 116.37 162.445C119.67 156.791 123.737 151.673 126.82 145.865C126.944 145.631 127.43 144.601 127.447 144.588C127.849 143.656 128.203 142.813 128.777 141.929C129.651 140.582 130.521 139.231 131.396 137.884C133.388 134.81 135.684 131.939 138.37 129.421C142.464 125.579 147.261 121.021 152.658 119.691C153.409 119.139 154.243 118.715 155.149 118.481C155.405 118.415 156.226 118.093 156.951 117.867C157.291 117.673 157.631 117.483 157.98 117.298C158.947 116.697 159.914 116.118 161.111 115.862C170.603 112.135 181.998 112.828 191.423 115.836C201.475 119.042 209.725 125.371 216.593 133.427C220.149 137.597 221.885 141.298 225.073 145.754C227.865 149.659 232.524 156.394 235.289 160.316C241.839 169.609 247.771 177.148 244.882 188.795C243.743 193.392 241.618 196.767 238.889 200.596C237.515 202.526 235.086 205.719 233.699 207.641C232.529 209.261 229.159 212.234 229.088 212.305C229.084 212.556 231.743 214.482 231.822 215.087C231.91 215.754 231.985 216.412 232.047 217.075C232.308 217.79 232.286 218.771 232.396 219.508C232.674 221.359 233.041 223.2 233.438 225.029C234.366 229.326 235.806 235.735 236.566 240.342C240.571 243.234 244.975 243.645 249.255 246.127C253.632 248.663 259.002 254.788 262.854 258.074C272.915 266.665 274.527 270.618 282.411 281.311C285.533 285.546 284.99 288.638 286.611 293.646C288.086 298.191 289.517 302.745 291.257 307.197C291.624 308.115 291.624 308.111 291.253 307.179C291.407 307.515 291.562 307.85 291.721 308.186C291.986 308.742 292.255 309.299 292.534 309.851C293.099 310.96 293.677 312.064 294.247 313.168C295.188 314.996 296.164 316.798 297.211 318.565C299.569 322.553 302.237 326.347 304.754 330.238C307.546 334.549 309.842 339.103 311.808 343.846C312.267 344.959 312.704 346.077 313.098 347.212C314.626 349.173 315.536 351.089 316.07 353.572C316.167 354.027 316.269 354.481 316.366 354.936C316.37 354.954 316.397 355.064 316.428 355.188C316.498 355.343 316.653 355.745 316.794 356.129C317.112 356.491 317.404 357.361 317.638 357.728C317.974 358.249 318.358 358.744 318.685 359.274C319.533 360.638 320.253 362.197 320.663 363.748C322.664 371.318 316.158 376.825 310.169 379.935C304.64 382.801 298.739 384.131 292.511 384.351C288.519 384.493 284.601 383.883 280.785 382.792C279.88 382.532 278.935 382.39 278.007 382.227C277.049 382.059 278.047 382.258 278.197 382.262C277.817 382.253 277.433 382.223 277.053 382.205C275.732 382.143 274.412 382.152 273.096 382.117C275.481 383.861 277.565 385.986 278.444 388.909C278.815 390.146 278.939 391.573 278.793 392.982C370.912 385.032 443.182 308.288 443.182 214.787C443.186 115.981 362.507 35.894 262.986 35.894Z" fill="#6833FF"/>
<path d="M176.181 144.089C173.089 142.27 169.233 142.526 165.682 143.043C154.067 144.734 142.61 148.731 133.291 155.869C130.486 158.02 127.862 160.466 125.932 163.426C123.587 167.016 122.346 171.217 121.423 175.408C120.544 179.396 119.93 183.438 119.577 187.505C119.241 191.405 119.148 195.349 119.714 199.223C121.675 212.702 131.652 224.146 143.82 230.267C155.988 236.389 170.077 237.736 183.663 236.729C197.319 235.718 211.483 232.056 221.474 222.671C228.386 216.73 229.958 206.735 230.192 197.624C230.391 189.886 229.958 182.13 228.898 174.463C228.134 168.938 226.964 163.271 223.757 158.704C219.239 152.265 212.04 148.458 203.767 147.163C195.504 145.869 187.245 144.323 176.181 144.089Z" fill="#4B506B"/>
<path d="M301.385 324.444L299.768 322.942C312.89 308.813 316.914 288.85 320.8 269.54L320.84 269.341C324.833 249.519 329.934 229.044 344.328 215.595C347.848 212.309 351.015 210.427 354.301 209.677C358.638 208.687 363.16 210.048 365.55 213.069C366.941 214.831 367.741 217.207 367.917 220.14C368.597 231.327 361.089 240.368 353.828 249.113C352.861 250.279 351.858 251.485 350.909 252.66C342.186 263.463 336.245 274.747 333.26 286.2C331.431 293.218 330.314 303.111 335.393 310.377C338.599 314.957 344.297 318.305 351.434 319.793C359.804 321.538 376.945 322.222 397.752 307.175C399.302 306.053 400.866 304.856 402.38 303.694C408.458 299.039 414.747 294.225 422.344 292.516L422.83 294.671C415.706 296.274 409.615 300.938 403.723 305.448C402.195 306.618 400.618 307.824 399.046 308.963C391.78 314.215 383.875 318.207 376.181 320.504C367.4 323.123 358.92 323.613 350.984 321.957C343.29 320.354 337.111 316.688 333.582 311.644C328.017 303.69 329.174 293.116 331.122 285.648C334.187 273.891 340.264 262.328 349.191 251.277C350.149 250.094 351.156 248.879 352.128 247.709C359.115 239.295 366.34 230.594 365.713 220.281C365.563 217.808 364.923 215.847 363.819 214.447C361.659 211.717 357.728 211.169 354.795 211.841C351.907 212.499 349.062 214.208 345.838 217.22C331.921 230.223 326.931 250.319 323.009 269.792L322.969 269.991C319.016 289.587 314.93 309.86 301.385 324.444Z" fill="#E6D6FF"/>
<path d="M359.627 311.869C353.682 311.869 348.413 309.515 345.428 305.492C341.492 300.183 342.093 293.072 343.29 288.041C346.792 273.321 356.858 261.625 366.592 250.319C373.473 242.325 380.593 234.057 385.376 224.759C388.009 219.645 391.741 209.946 387.143 202.446C384.979 198.913 381.105 196.268 376.234 195C370.324 193.459 354.526 192.147 335.552 213.179C321.326 228.946 310.849 248.106 305.262 268.595C304.163 272.632 303.222 276.814 302.312 280.86C300.201 290.263 298.019 299.984 293.616 308.773L291.641 307.784C295.921 299.238 298.076 289.649 300.157 280.374C301.071 276.306 302.016 272.097 303.129 268.012C308.809 247.192 319.453 227.719 333.909 211.699C340.022 204.924 346.735 199.571 353.329 196.219C361.495 192.063 369.388 190.937 376.79 192.862C382.214 194.276 386.56 197.27 389.024 201.289C394.188 209.707 390.182 220.241 387.337 225.766C382.43 235.293 375.227 243.663 368.262 251.754C358.258 263.374 348.811 274.354 345.432 288.549C344.345 293.125 343.767 299.547 347.194 304.171C349.827 307.718 354.848 309.816 360.263 309.643C365.475 309.48 370.611 307.47 375.019 305.602C387.739 300.209 396.497 294.923 403.418 288.465C418.267 274.615 426.495 252.602 425.992 228.068C425.67 212.309 421.65 200.172 414.045 191.997C405.993 183.344 393.105 178.614 378.676 179.025C365.214 179.409 351.933 183.972 340.543 188.22C306.344 200.98 270.238 218.894 236.124 240.023L234.962 238.146C269.191 216.938 305.435 198.957 339.77 186.149C351.328 181.838 364.812 177.205 378.614 176.812C393.675 176.388 407.181 181.366 415.661 190.486C423.647 199.072 427.865 211.695 428.2 228.015C428.717 253.176 420.233 275.794 404.924 290.073C395.8 298.584 384.608 303.924 375.88 307.625C371.287 309.573 365.921 311.662 360.329 311.839C360.104 311.865 359.866 311.869 359.627 311.869Z" fill="#E6D6FF"/>
<path d="M245.099 186.763L244.652 184.599L289.786 175.333C313.857 170.391 335.366 165.581 354.778 156.783C370.55 149.632 391.776 136.409 403.321 114.003L405.287 115.014C393.45 137.985 371.782 151.5 355.692 158.797C336.073 167.692 314.44 172.528 290.232 177.497L245.099 186.763Z" fill="#E6D6FF"/>
<path d="M233.924 159.803L233.474 157.644C250.46 154.102 267.875 152.383 285.22 152.529C288.921 152.56 292.679 152.679 296.314 152.79C302.988 152.997 309.891 153.214 316.653 152.9C327.898 152.375 339.041 150.392 349.774 147.004C380.31 137.367 391.953 120.151 396.179 110.748L398.193 111.653C393.817 121.392 381.799 139.213 350.44 149.111C339.527 152.556 328.194 154.574 316.759 155.109C309.913 155.427 302.966 155.21 296.248 155.003C292.626 154.888 288.881 154.773 285.202 154.742C268.012 154.592 250.756 156.292 233.924 159.803Z" fill="#E6D6FF"/>
<path d="M162.167 103.213C151.16 103.213 140.366 101.68 130.234 97.5243L131.073 95.4794C151.708 103.946 175.386 101.208 197.902 96.9899C214.8 93.8232 231.857 89.9277 248.354 86.1558C252.452 85.2195 256.551 84.2832 260.65 83.3557C281.381 78.6696 300.09 74.9022 319.162 76.3111C326.604 76.8632 334.077 78.2279 341.307 79.5485C352.039 81.5095 363.134 83.5368 374.101 82.8478L374.237 85.0517C363.001 85.7583 351.77 83.7046 340.905 81.7215C333.737 80.4098 326.321 79.0583 318.994 78.515C300.232 77.1282 281.691 80.8603 261.131 85.511C257.032 86.4385 252.938 87.3748 248.839 88.3112C232.326 92.0874 215.246 95.9873 198.304 99.1629C186.397 101.393 174.154 103.213 162.167 103.213Z" fill="#E6D6FF"/>
<path d="M284.133 64.6553C272.477 64.6553 260.901 63.4407 249.824 59.373C245.726 57.8669 241.689 55.9589 237.78 54.1172C230.369 50.6192 222.706 47.0019 214.632 46.1848L214.853 43.9897C223.307 44.8466 231.142 48.5433 238.721 52.1208C242.581 53.9449 246.578 55.8264 250.584 57.3016C269.496 64.2534 290.126 62.6546 310.077 61.1087C321.887 60.1945 334.099 59.2493 345.993 60.0355L345.847 62.2394C334.112 61.4621 321.979 62.4028 310.249 63.3127C301.614 63.9796 292.847 64.6553 284.133 64.6553Z" fill="#E6D6FF"/>
<path d="M86.8736 207L86.6088 209.193L122.911 213.577L123.176 211.385L86.8736 207Z" fill="#E6D6FF"/>
<path d="M91.2837 173.804L89.9764 172.024C97.8027 166.265 106.499 161.968 115.827 159.256L116.445 161.376C107.365 164.017 98.9025 168.2 91.2837 173.804Z" fill="#E6D6FF"/>
<path d="M282.773 283.32L281.836 281.32C308.765 268.67 334.037 252.364 356.955 232.856C379.873 213.347 400.004 190.999 416.788 166.438C425.418 153.811 435.885 136.833 440.289 117.453C444.666 98.187 441.958 79.1556 432.86 65.2387C422.613 49.5684 403.635 39.2554 382.095 37.6566C364.432 36.3449 344.822 40.6158 323.803 50.3501L322.876 48.3449C344.239 38.4516 364.22 34.1144 382.258 35.4527C404.478 37.1045 424.088 47.7884 434.706 64.0285C444.131 78.4445 446.949 98.0943 442.44 117.938C437.957 137.681 427.348 154.893 418.612 167.679C401.718 192.403 381.454 214.897 358.386 234.534C335.313 254.175 309.878 270.587 282.773 283.32Z" fill="#FFD200"/>
<path d="M120.906 219.415C100.559 214.085 81.9026 202.27 68.3788 186.158C63.0876 179.851 59.806 174.273 58.0526 168.606C55.8178 161.376 56.3257 153.96 59.4439 148.267C62.721 142.278 68.9839 137.645 78.5857 134.103C88.1787 130.565 96.1376 129.788 102.922 131.727L102.316 133.851C96.0006 132.045 88.4879 132.805 79.3498 136.179C70.2691 139.527 64.3905 143.833 61.3828 149.332C58.5517 154.504 58.11 161.297 60.1682 167.961C61.8289 173.336 64.978 178.672 70.0748 184.745C83.3071 200.512 101.557 212.066 121.467 217.287L120.906 219.415Z" fill="#FFD200"/>
<path d="M102.383 79.8448C81.779 72.8223 63.3747 59.2631 50.5576 41.6671L52.3419 40.3687C64.8941 57.6025 82.9185 70.879 103.094 77.7557L102.383 79.8448Z" fill="#FFD200"/>
<path d="M53 68.944L51.1273 67.7736C57.4343 57.6771 65.2032 48.6185 74.2176 40.8496L75.6575 42.5235C66.8109 50.1467 59.1833 59.0374 53 68.944Z" fill="#FFD200"/>
<path d="M383.044 356.213C382.399 356.213 381.75 356.169 381.096 356.076C378.654 355.727 376.671 354.777 375.364 353.324C373.871 351.668 373.385 349.248 374.065 346.85C374.741 344.447 376.419 342.641 378.557 342.009C380.615 341.399 382.329 340.821 383.839 340.304C388.569 338.696 391.423 337.725 393.432 340.79C395.663 344.191 395.141 349.182 392.213 352.397C390.005 354.83 386.608 356.213 383.044 356.213ZM389.837 340.989C388.826 340.989 387.275 341.47 384.546 342.398C383.018 342.919 381.282 343.506 379.18 344.129C377.775 344.544 376.658 345.785 376.189 347.45C375.721 349.115 376.026 350.758 377.002 351.849C378.212 353.192 380.067 353.7 381.406 353.89C384.935 354.393 388.45 353.249 390.575 350.913C392.805 348.457 393.251 344.544 391.582 342C391.14 341.32 390.676 340.989 389.837 340.989Z" fill="#FFD200"/>
<path d="M303.756 136.519C302.338 128.702 303.637 120.549 307.413 113.557L309.357 114.608C305.819 121.158 304.6 128.803 305.929 136.126L303.756 136.519Z" fill="#FFD200"/>
<path d="M313.747 130.433C309.418 125.474 301.702 123.928 295.797 126.829L294.821 124.846C301.597 121.516 310.448 123.292 315.412 128.98L313.747 130.433Z" fill="#FFD200"/>
<path d="M139.562 152.799C137.38 178.424 147.861 204.823 167.03 221.964C155.608 204.425 150.052 183.137 151.448 162.255C151.836 156.452 152.852 150.423 156.324 145.754C151.116 148.033 145.679 149.8 139.562 152.799Z" fill="white"/>
<path d="M122.381 278.44C118.782 267.558 110.421 258.181 100.024 253.354L100.581 252.152C111.304 257.126 119.926 266.798 123.64 278.021L122.381 278.44Z" fill="#7C8095"/>
<path d="M122.726 277.195C122.399 265.835 117.899 254.436 110.381 245.916L111.375 245.037C119.095 253.787 123.715 265.491 124.051 277.155L122.726 277.195Z" fill="#7C8095"/>
<path d="M110.699 278.188C103.774 271.828 94.0485 268.613 84.6984 269.58L84.5615 268.264C94.287 267.257 104.392 270.6 111.596 277.212L110.699 278.188Z" fill="#7C8095"/>
<path d="M89.2785 279.928C85.9748 278.352 82.3002 277.636 78.6476 277.848L78.5725 276.528C82.4503 276.298 86.3458 277.066 89.8527 278.736L89.2785 279.928Z" fill="#7C8095"/>
<path d="M90.365 286.717C84.7161 286.054 78.9744 285.909 73.299 286.289L73.2106 284.968C78.97 284.584 84.7911 284.729 90.524 285.401L90.365 286.717Z" fill="#7C8095"/>
<path d="M68.6085 295.563L68.5157 294.243C71.2099 294.049 73.9482 293.686 76.5982 293.333C81.0679 292.737 85.6922 292.119 90.2943 292.304L90.2413 293.629C85.754 293.452 81.1872 294.057 76.7705 294.649C74.1028 295.003 71.3424 295.369 68.6085 295.563Z" fill="#7C8095"/>
<path d="M68.0476 306.257L67.7075 304.976C71.9917 303.832 76.3863 302.891 80.7632 302.184C84.4114 301.593 88.616 301.102 92.2995 302.798L91.7474 304C88.404 302.463 84.4334 302.931 80.9752 303.492C76.638 304.194 72.292 305.126 68.0476 306.257Z" fill="#7C8095"/>
<path d="M232.052 277.168C230.038 265.199 234.494 252.143 243.407 243.906L244.308 244.878C235.713 252.819 231.416 265.407 233.359 276.947L232.052 277.168Z" fill="#7C8095"/>
<path d="M235.355 277.318L234.052 277.08C236.04 266.188 242.842 256.198 252.24 250.35L252.942 251.476C243.853 257.13 237.281 266.793 235.355 277.318Z" fill="#7C8095"/>
<path d="M244.153 276.365L243.323 275.331C251.158 269.055 261.4 265.743 271.435 266.255L271.369 267.58C261.665 267.09 251.741 270.287 244.153 276.365Z" fill="#7C8095"/>
<path d="M266.029 277.945L265.543 276.713C269.465 275.163 273.736 274.708 277.897 275.406L277.68 276.713C273.754 276.055 269.726 276.484 266.029 277.945Z" fill="#7C8095"/>
<path d="M266.723 285.189L266.387 283.908C271.629 282.534 277.031 281.973 282.446 282.234L282.384 283.559C277.097 283.303 271.833 283.85 266.723 285.189Z" fill="#7C8095"/>
<path d="M286.332 292.286C279.447 291.465 272.438 291.019 265.503 290.966L265.512 289.641C272.495 289.698 279.553 290.144 286.487 290.97L286.332 292.286Z" fill="#7C8095"/>
<path d="M288.687 302.613C282.247 299.128 274.443 298.011 267.288 299.548L267.01 298.254C274.474 296.65 282.605 297.816 289.318 301.447L288.687 302.613Z" fill="#7C8095"/>
<path d="M176.34 416.033C161.584 416.033 147.141 412.221 135.353 405.163L136.033 404.028C148.449 411.457 163.872 415.229 179.462 414.65C193.812 414.116 208.824 409.96 222.874 402.624L223.488 403.798C209.266 411.223 194.06 415.436 179.511 415.975C178.451 416.01 177.391 416.033 176.34 416.033Z" fill="#7C8095"/>
<path d="M182.205 428.576C173.288 428.576 163.549 426.99 152.583 423.762C139.58 419.933 129.863 415.299 122.01 409.187L122.823 408.14C130.539 414.147 140.114 418.705 152.958 422.49C165.541 426.195 176.477 427.715 186.379 427.132C203.025 426.151 220.083 419.177 237.069 406.409L237.864 407.469C220.665 420.396 203.37 427.459 186.454 428.457C185.063 428.536 183.645 428.576 182.205 428.576Z" fill="#7C8095"/>
<path d="M177.965 260.897C172.431 260.897 166.579 260.561 160.347 259.89C153.585 259.161 148.493 258.269 143.838 256.988C134.165 254.325 125.018 249.471 117.395 242.952L118.256 241.945C125.738 248.34 134.704 253.097 144.191 255.707C148.771 256.971 153.802 257.854 160.488 258.569C175.669 260.204 188.592 259.833 200.009 257.448C213.965 254.528 226.005 248.446 234.825 239.86L235.748 240.81C226.747 249.568 214.482 255.774 200.283 258.746C193.424 260.181 186.039 260.897 177.965 260.897Z" fill="#7C8095"/>
<path d="M180.907 276.908L180.845 271.118C180.805 267.514 180.765 263.786 181.75 260.195L183.027 260.544C182.09 263.958 182.13 267.589 182.17 271.1L182.232 276.89L180.907 276.908Z" fill="#7C8095"/>
<path d="M171.186 277.071L169.861 277.049C169.949 271.493 170.386 265.888 171.159 260.385L172.471 260.57C171.707 266.02 171.274 271.572 171.186 277.071Z" fill="#7C8095"/>
<path d="M316.498 355.657C311.795 347.433 304.361 341.302 297.171 335.371L298.015 334.351C304.958 340.079 312.828 346.567 317.651 355.003L316.498 355.657Z" fill="#7C8095"/>
<path d="M274.889 330.129C272.552 327.192 269.085 325.164 265.38 324.568L265.592 323.261C269.62 323.91 273.387 326.114 275.927 329.303L274.889 330.129Z" fill="#7C8095"/>
<path d="M39.7721 359.261L38.6326 358.581C40.5715 355.339 42.3735 352.892 44.2992 350.882C48.3227 346.691 53.5653 343.772 58.1896 341.197L58.8344 342.354C54.2897 344.885 49.1442 347.751 45.2576 351.801C43.4026 353.736 41.658 356.107 39.7721 359.261Z" fill="#7C8095"/>
<path d="M82.8169 333.339L81.9689 332.323C85.3035 329.541 89.3403 327.752 93.6421 327.147L93.8276 328.459C89.8261 329.02 85.9174 330.755 82.8169 333.339Z" fill="#7C8095"/>
<path d="M123.243 273.538L122.836 272.274C132.279 269.249 142.985 265.822 153.665 266.506L153.581 267.827C143.153 267.156 132.575 270.548 123.243 273.538Z" fill="#7C8095"/>
<path d="M231.95 272.376C223.262 268.26 213.59 265.817 203.988 265.318L204.059 263.993C213.833 264.505 223.673 266.988 232.52 271.179L231.95 272.376Z" fill="#7C8095"/>
<path d="M146.647 243.54C145.71 243.54 144.792 243.319 143.921 243.067C137.473 241.208 131.572 237.334 127.302 232.158L128.322 231.314C132.425 236.288 138.091 240.011 144.288 241.795C145.264 242.078 146.298 242.316 147.256 242.171C148.047 242.051 148.965 241.561 149.248 240.74C149.557 239.834 149.036 238.854 148.497 238.288C147.821 237.582 146.916 237.122 145.958 236.637L145.825 236.57C143.321 235.298 140.101 233.527 137.429 231.067C134.664 228.523 132.818 225.542 132.098 222.45L133.388 222.15C134.222 225.727 136.537 228.444 138.326 230.091C140.878 232.441 143.997 234.154 146.426 235.387L146.558 235.453C147.574 235.97 148.625 236.5 149.46 237.37C150.511 238.469 150.922 239.958 150.507 241.164C150.1 242.352 148.903 243.257 147.459 243.478C147.185 243.522 146.916 243.54 146.647 243.54Z" fill="#7C8095"/>
<path d="M207.411 243.619C206.515 243.619 205.795 243.456 205.176 243.116C204.121 242.533 203.507 241.389 203.688 240.333C203.798 239.688 204.16 239.176 204.505 238.761C206.21 236.685 208.577 235.404 210.869 234.168C211.938 233.589 213.042 232.993 214.049 232.326C218.007 229.711 220.992 225.586 222.238 221.006L223.514 221.355C222.185 226.24 219.005 230.643 214.778 233.434C213.723 234.132 212.592 234.742 211.497 235.334C209.218 236.566 207.067 237.727 205.53 239.604C205.3 239.887 205.053 240.218 204.995 240.558C204.898 241.119 205.349 241.698 205.821 241.959C206.338 242.246 207.009 242.347 207.937 242.277C211.784 241.994 214.924 239.578 218.241 237.016C221.438 234.552 224.742 232.008 228.779 231.495L228.947 232.812C225.268 233.28 222.251 235.603 219.053 238.067C215.723 240.634 212.278 243.288 208.034 243.597C207.813 243.61 207.61 243.619 207.411 243.619Z" fill="#7C8095"/>
<path d="M116.459 203.878C115.712 195.539 115.385 187.068 115.487 178.699C115.549 173.681 115.814 168.408 118.283 163.92C120.248 160.343 123.402 157.671 126.454 155.087C127.209 154.447 127.995 153.784 128.741 153.122C130.217 151.814 131.661 150.401 133.057 149.041C135.508 146.647 138.043 144.174 140.878 142.107C151.377 134.466 164.759 133.136 175.249 132.832C184.564 132.562 191.595 133.136 198.052 134.695C206.197 136.665 213.193 140.34 218.281 145.322C221.355 148.33 223.841 151.903 226.244 155.361C227.361 156.969 228.518 158.629 229.715 160.206C230.709 161.518 231.782 162.838 232.82 164.119C236.844 169.079 241.004 174.211 242.294 180.536C243.721 187.532 241.428 194.457 238.739 201.533L237.502 201.06C240.117 194.175 242.351 187.444 240.995 180.797C239.768 174.79 235.713 169.786 231.791 164.95C230.749 163.664 229.667 162.33 228.66 161.001C227.445 159.402 226.284 157.733 225.157 156.112C222.79 152.707 220.339 149.186 217.353 146.263C212.437 141.448 205.653 137.893 197.743 135.981C191.41 134.448 184.484 133.883 175.293 134.152C164.998 134.452 151.872 135.751 141.665 143.175C138.909 145.181 136.409 147.623 133.988 149.986C132.58 151.359 131.126 152.782 129.625 154.111C128.865 154.782 128.079 155.454 127.315 156.099C124.356 158.603 121.299 161.195 119.449 164.556C117.13 168.774 116.878 173.862 116.816 178.712C116.715 187.037 117.042 195.464 117.784 203.759L116.459 203.878Z" fill="#7C8095"/>
<path d="M178.597 237.705C170.073 237.705 161.553 236.46 153.391 233.964C144.394 231.213 136.828 227.238 130.892 222.145C126.091 218.029 122.161 213.025 118.358 208.184C114.891 203.772 110.96 198.768 109.414 192.819C108.239 188.305 108.518 183.636 108.933 178.849C109.282 174.821 109.723 170.912 111.243 167.321C112.687 163.911 115.006 161.019 117.249 158.227C118.164 157.088 119.109 155.908 119.97 154.725C122.377 151.412 124.365 147.707 126.286 144.12C128.322 140.326 130.424 136.4 133.057 132.858C139.037 124.815 147.791 118.853 158.377 115.615C168.271 112.59 179.339 112.166 189.541 114.423C194.731 115.571 199.015 117.165 202.641 119.299C208.087 122.501 212.349 127.116 215.458 130.786C221.703 138.153 227.052 146.333 232.224 154.243C233.924 156.84 235.612 159.141 237.246 161.363C241.3 166.884 244.803 171.654 245.655 177.524C246.839 185.655 244.781 194.152 240.006 200.839C238.509 202.933 236.764 204.841 235.077 206.682C233.452 208.458 231.769 210.295 230.365 212.256C229.362 213.652 228.452 215.176 227.569 216.651C226.288 218.789 224.967 221.001 223.293 222.962C219.747 227.123 214.597 230.281 207.08 232.909C197.937 236.102 188.265 237.705 178.597 237.705ZM176.26 115.196C170.391 115.196 164.521 116.044 159.027 117.726C148.895 120.827 140.53 126.515 134.832 134.178C132.297 137.588 130.23 141.439 128.234 145.167C126.277 148.82 124.25 152.596 121.759 156.028C120.867 157.256 119.904 158.452 118.972 159.614C116.724 162.414 114.599 165.06 113.274 168.187C111.879 171.486 111.477 175.059 111.132 179.047C110.735 183.632 110.465 188.097 111.552 192.271C112.983 197.774 116.759 202.584 120.094 206.828C123.83 211.585 127.695 216.501 132.328 220.48C138.03 225.374 145.335 229.203 154.036 231.862C171.013 237.051 189.594 236.685 206.356 230.833C213.488 228.342 218.338 225.387 221.62 221.54C223.17 219.72 224.389 217.684 225.678 215.525C226.584 214.01 227.516 212.446 228.576 210.975C230.06 208.908 231.787 207.023 233.456 205.198C235.099 203.401 236.8 201.546 238.217 199.563C242.665 193.335 244.582 185.421 243.478 177.85C242.7 172.528 239.511 168.182 235.475 162.679C233.823 160.431 232.118 158.108 230.387 155.458C225.25 147.605 219.937 139.483 213.784 132.217C210.79 128.684 206.691 124.236 201.533 121.207C198.11 119.193 194.033 117.682 189.073 116.582C184.895 115.655 180.575 115.196 176.26 115.196Z" fill="#4B506B"/>
<path d="M62.7476 388.433C62.4252 388.433 62.1028 388.428 61.7848 388.411C55.9769 388.159 50.5046 386.225 45.2134 384.356C42.2101 383.296 38.1026 381.843 35.7927 378.566C34.2424 376.367 33.5711 373.39 33.8935 370.188C34.185 367.33 35.2009 364.583 36.1328 362.229C38.7121 355.714 41.8038 349.337 45.3194 343.272C47.4659 339.576 49.8156 335.91 52.0902 332.363C57.4918 323.945 63.07 315.244 66.1396 305.678C64.9824 302.401 65.0487 299.265 66.3428 296.588C66.5239 296.217 66.7182 295.864 66.9125 295.519C67.2879 294.848 67.6413 294.217 67.7914 293.567C67.9063 293.068 67.9195 292.498 67.9284 291.898C67.946 290.891 67.9681 289.751 68.529 288.7C69.0016 287.812 69.748 287.203 70.4061 286.664C70.9759 286.196 71.5147 285.754 71.762 285.229C71.9299 284.871 71.9961 284.403 72.0624 283.912C72.0933 283.678 72.1286 283.444 72.1684 283.215C72.4687 281.563 73.2946 280.004 74.4827 278.82C74.8625 278.445 75.2644 278.113 75.6575 277.8C76.2935 277.283 76.8898 276.797 77.2519 276.205C77.5037 275.795 77.6671 275.287 77.8394 274.748C77.9409 274.425 78.0514 274.094 78.1794 273.763C79.2041 271.17 81.4169 269.32 83.3646 267.69L83.4264 267.637C88.1214 263.711 92.7059 259.537 97.0607 255.231C97.5819 254.714 98.1693 254.131 98.5359 253.495C98.7081 253.195 98.8494 252.85 98.9996 252.483C99.1144 252.201 99.2337 251.909 99.3794 251.613C101.173 247.917 105.165 246.366 109.131 245.112C111.393 243.672 113.977 242.44 117.02 241.34C118.133 240.938 118.959 240.081 119.228 239.039C119.44 238.226 119.824 237.454 120.195 236.712C120.619 235.859 121.021 235.051 121.136 234.269C121.291 233.222 120.946 232.065 120.584 230.846C120.08 229.15 119.511 227.229 120.367 225.37C120.553 224.963 120.787 224.614 121.012 224.274C121.321 223.806 121.591 223.404 121.604 223.046C121.613 222.848 121.538 222.583 121.463 222.3C121.419 222.132 121.374 221.964 121.335 221.796C120.712 218.881 122.483 216.289 124.197 214.089L125.941 215.445C124.537 217.252 123.07 219.35 123.494 221.333C123.521 221.465 123.556 221.593 123.592 221.726C123.702 222.137 123.826 222.6 123.808 223.135C123.773 224.111 123.282 224.848 122.85 225.498C122.664 225.78 122.487 226.045 122.373 226.297C121.865 227.401 122.253 228.709 122.699 230.223C123.115 231.619 123.543 233.063 123.318 234.596C123.154 235.731 122.655 236.734 122.169 237.705C121.834 238.381 121.52 239.017 121.361 239.609C120.906 241.353 119.559 242.78 117.766 243.429C114.82 244.489 112.347 245.677 110.196 247.06L110.072 247.139L109.931 247.183C106.38 248.301 102.798 249.635 101.363 252.589C101.243 252.832 101.142 253.08 101.04 253.331C100.872 253.747 100.696 254.171 100.453 254.599C99.936 255.5 99.2028 256.229 98.6154 256.812C94.2208 261.158 89.5877 265.376 84.8486 269.342L84.7868 269.395C82.9539 270.927 81.0591 272.513 80.2376 274.584C80.1316 274.849 80.0389 275.137 79.9417 275.432C79.7385 276.068 79.5221 276.727 79.1379 277.363C78.5814 278.277 77.804 278.908 77.0532 279.518C76.6866 279.814 76.3421 280.096 76.0418 280.397C75.1673 281.262 74.5622 282.411 74.3414 283.621C74.306 283.82 74.2795 284.023 74.2486 284.222C74.1647 284.827 74.0719 285.516 73.7584 286.178C73.299 287.154 72.504 287.804 71.8018 288.378C71.2541 288.824 70.7374 289.248 70.4724 289.747C70.1588 290.334 70.1455 291.081 70.1279 291.946C70.1146 292.635 70.1014 293.346 69.9335 294.075C69.7127 295.025 69.2666 295.824 68.8338 296.597C68.6527 296.924 68.476 297.238 68.3259 297.547C67.257 299.759 67.2614 302.427 68.3347 305.258L68.4716 305.616L68.3568 305.983C65.2254 315.973 59.4925 324.912 53.9452 333.556C51.6839 337.08 49.3474 340.728 47.2274 344.381C43.7648 350.348 40.7217 356.628 38.1821 363.041C37.2634 365.356 36.3492 367.834 36.0886 370.408C35.8192 373.085 36.3536 375.532 37.5947 377.294C39.3525 379.794 42.4177 381.026 45.9466 382.276C51.0876 384.091 56.4009 385.968 61.8775 386.207C67.4249 386.45 73.9394 384.294 80.242 382.21C85.7673 380.381 91.4824 378.491 96.566 378.222L96.6853 380.425C91.8932 380.682 86.3238 382.523 80.9354 384.308C74.7963 386.335 68.4539 388.433 62.7476 388.433Z" fill="#4B506B"/>
<path d="M293.077 384.763C290.533 384.763 287.984 384.511 285.476 383.999C284.734 383.848 283.987 383.672 283.272 383.504C281.836 383.164 280.48 382.846 279.089 382.687C278.118 382.576 277.146 382.541 276.117 382.51C274.867 382.47 273.577 382.426 272.292 382.227C270.017 381.879 263.551 379.374 262.014 377.064L263.852 375.841C264.806 377.272 270.424 379.706 272.623 380.046C273.78 380.222 274.951 380.262 276.187 380.302C277.217 380.337 278.281 380.372 279.341 380.492C280.86 380.668 282.344 381.017 283.78 381.353C284.482 381.521 285.211 381.689 285.922 381.834C295.175 383.729 305.019 381.852 312.925 376.693C316.357 374.454 318.318 372.131 318.91 369.591C319.586 366.707 318.428 363.492 317.497 360.913L317.461 360.802C315.787 353.987 313.893 346.263 310.032 339.646C308.447 336.935 306.503 334.355 304.618 331.864C303.54 330.438 302.427 328.963 301.38 327.465C297.312 321.635 294.101 315.218 291.001 309.008C289.243 305.488 287.423 301.849 286.624 297.834C286.43 296.845 286.297 295.846 286.174 294.879C285.957 293.241 285.758 291.69 285.264 290.219C284.725 288.616 283.824 287.088 282.949 285.613L279.973 280.582C278.846 278.679 277.685 276.713 276.417 274.872C272.606 269.342 267.619 264.607 262.796 260.027C256.251 253.813 248.831 246.768 239.838 243.447L239.485 243.319C237.939 242.754 236.186 242.113 235.077 240.607C234.061 239.225 233.902 237.533 233.761 236.036C233.151 229.627 231.946 223.281 230.179 217.137C229.843 215.962 229.406 214.664 228.505 214.103L229.671 212.226C231.239 213.197 231.853 214.955 232.303 216.523C234.105 222.799 235.338 229.278 235.956 235.784C236.08 237.096 236.208 238.408 236.861 239.3C237.573 240.271 238.871 240.744 240.245 241.243L240.607 241.376C250.023 244.852 257.62 252.064 264.32 258.424C269.222 263.079 274.293 267.893 278.237 273.613C279.549 275.516 280.732 277.517 281.876 279.452L284.853 284.482C285.785 286.059 286.748 287.684 287.362 289.508C287.923 291.182 288.148 292.914 288.369 294.583C288.492 295.515 288.616 296.478 288.797 297.392C289.535 301.111 291.288 304.618 292.98 308.01C296.049 314.149 299.22 320.496 303.195 326.193C304.216 327.655 305.315 329.113 306.38 330.522C308.301 333.066 310.289 335.698 311.94 338.525C315.951 345.397 317.89 353.263 319.594 360.21C320.619 363.055 321.878 366.588 321.061 370.086C320.332 373.209 318.066 375.969 314.131 378.535C307.881 382.616 300.492 384.763 293.077 384.763Z" fill="#4B506B"/>
<path d="M99.141 380.381C97.308 380.381 95.7887 378.963 95.6695 377.126L89.4419 280.949C89.3801 279.999 89.7158 279.059 90.3606 278.361C91.0054 277.663 91.9241 277.257 92.8737 277.248L264.059 275.273C264.073 275.273 264.086 275.273 264.099 275.273C265.044 275.273 265.928 275.644 266.586 276.32C267.257 277.005 267.606 277.915 267.575 278.873L264.254 373.92C264.187 375.766 262.69 377.241 260.844 377.276L99.2072 380.386C99.1851 380.381 99.163 380.381 99.141 380.381ZM264.099 277.477C264.095 277.477 264.09 277.477 264.086 277.477L92.9002 279.452C92.5469 279.456 92.22 279.602 91.9815 279.858C91.743 280.114 91.6238 280.45 91.6459 280.803L97.8734 376.98C97.9175 377.661 98.4785 378.204 99.1675 378.168L260.804 375.059C261.48 375.046 262.028 374.507 262.05 373.831L265.371 278.785C265.384 278.436 265.256 278.105 265.009 277.853C264.766 277.614 264.444 277.477 264.099 277.477Z" fill="#4B506B"/>
<path d="M92.3437 406.064C88.6028 406.064 85.2019 403.749 83.8416 400.256L80.5865 391.908C80.3966 391.418 80.4319 390.875 80.6925 390.415C80.9531 389.956 81.3948 389.638 81.9115 389.545C87.8961 388.472 93.1387 384.608 95.9389 379.215L96.0934 378.923L98.0544 379.939L97.9043 380.231C94.8744 386.065 89.2741 390.292 82.8479 391.617L85.9042 399.456C86.9554 402.146 89.6098 403.917 92.485 403.86L261.568 400.485C269.474 400.326 276.342 395.11 278.674 387.646C272.027 386.622 266.078 382.916 262.222 377.36L262.028 377.077L263.843 375.818L264.037 376.101C267.734 381.432 273.555 384.89 280.008 385.592L281.443 385.751L281.152 386.97C278.974 396.042 270.94 402.504 261.612 402.694L92.5292 406.068C92.4629 406.059 92.4011 406.064 92.3437 406.064Z" fill="#4B506B"/>
<path d="M86.9579 403.131L84.6614 431.854L86.8627 432.03L89.1592 403.307L86.9579 403.131Z" fill="#4B506B"/>
<path d="M96.3266 405.408L93.9348 431.817L96.134 432.017L98.5259 405.608L96.3266 405.408Z" fill="#4B506B"/>
<path d="M106.043 403.642L103.651 430.051L105.85 430.25L108.242 403.841L106.043 403.642Z" fill="#4B506B"/>
<path d="M113.551 403.642L111.159 430.051L113.358 430.25L115.75 403.841L113.551 403.642Z" fill="#4B506B"/>
<path d="M272.887 398.339L270.688 398.539L273.079 424.948L275.279 424.748L272.887 398.339Z" fill="#4B506B"/>
<path d="M264.091 401.868L261.892 402.067L264.284 428.476L266.483 428.277L264.091 401.868Z" fill="#4B506B"/>
<path d="M253.496 401.868L251.296 402.067L253.688 428.476L255.887 428.277L253.496 401.868Z" fill="#4B506B"/>
<path d="M245.987 401.868L243.788 402.067L246.18 428.476L248.379 428.277L245.987 401.868Z" fill="#4B506B"/>
<path d="M279.152 386.602L82.0981 390.406L82.1408 392.614L279.195 388.81L279.152 386.602Z" fill="#4B506B"/>
<path d="M121.759 428.019L119.608 427.525C120.217 424.87 120.849 422.123 120.61 419.438C120.557 418.837 120.46 418.241 120.359 417.605C120.204 416.629 120.041 415.622 120.041 414.575C120.041 412.839 120.482 411.187 120.906 409.593C121.348 407.937 121.768 406.373 121.684 404.805L123.888 404.686C123.989 406.598 123.508 408.409 123.04 410.158C122.633 411.682 122.249 413.122 122.249 414.571C122.249 415.441 122.39 416.324 122.54 417.251C122.642 417.896 122.748 418.559 122.81 419.239C123.075 422.273 122.377 425.325 121.759 428.019Z" fill="#4B506B"/>
<path d="M237.838 425.404C236.981 422.763 236.658 419.906 236.901 417.141C236.954 416.536 237.034 415.935 237.113 415.352C237.263 414.235 237.405 413.179 237.365 412.132C237.325 411.068 237.1 409.981 236.861 408.833C236.415 406.673 235.952 404.434 236.751 402.208L238.831 402.954C238.244 404.597 238.624 406.435 239.026 408.387C239.273 409.575 239.525 410.803 239.573 412.048C239.617 413.285 239.458 414.482 239.304 415.644C239.224 416.227 239.154 416.779 239.101 417.335C238.88 419.808 239.171 422.361 239.935 424.724L237.838 425.404Z" fill="#4B506B"/>
<path d="M177.824 252.271C172.961 252.271 168.05 252.108 163.094 251.913C159.349 251.763 155.105 251.595 150.971 250.827C140.212 248.822 130.53 242.815 121.675 236.623L122.942 234.812C131.595 240.863 141.029 246.724 151.377 248.654C155.356 249.396 159.517 249.559 163.187 249.705C176.212 250.222 188.914 250.496 201.082 248.199C210.706 246.384 224.239 242.025 234.083 231.583L235.691 233.098C225.44 243.968 211.435 248.491 201.493 250.368C193.759 251.825 185.862 252.271 177.824 252.271Z" fill="#4B506B"/>
<path d="M124.762 215.816C119.06 204.249 117.174 190.884 119.462 178.191C120.831 170.576 123.53 164.313 127.483 159.579C130.009 156.549 133.233 153.881 137.35 151.426C145.587 146.501 155.511 143.524 166.848 142.575C178.023 141.643 189.131 142.822 197.562 143.957C203.352 144.734 209.447 145.746 214.721 148.718C221.125 152.331 226.195 158.854 228.995 167.087C231.72 175.099 232.003 183.619 231.946 190.142C231.879 197.686 231.283 205.296 230.179 212.76L227.993 212.437C229.084 205.075 229.671 197.567 229.737 190.124C229.795 183.773 229.521 175.496 226.902 167.798C224.274 160.082 219.561 153.987 213.63 150.644C208.696 147.861 202.84 146.899 197.266 146.148C188.949 145.03 177.996 143.864 167.034 144.779C156.036 145.697 146.43 148.572 138.485 153.32C134.589 155.648 131.546 158.161 129.183 160.992C125.478 165.431 122.942 171.349 121.639 178.584C119.436 190.818 121.251 203.692 126.745 214.84L124.762 215.816Z" fill="#4B506B"/>
</svg>
