<svg width="71" height="71" viewBox="0 0 71 71" fill="none" xmlns="http://www.w3.org/2000/svg">
<path d="M65.6951 55.0843L54.1304 50.0753C53.8582 49.9392 53.5565 49.6067 53.2973 49.1629L61.0186 49.157C61.1535 49.17 64.3366 49.4611 66.8891 48.3642C67.8559 47.9476 68.5753 47.1252 68.8641 46.1076C69.1552 45.0804 68.9706 43.9929 68.36 43.122C66.1531 39.9814 61.002 31.775 60.8411 23.4515C60.8375 23.3083 60.3713 9.15325 46.3926 9.03846C44.3348 9.05503 42.432 9.40411 40.7007 10.0478C40.3233 9.0858 39.7671 8.08233 38.9399 7.13803C36.5106 4.3643 32.5665 2.9585 27.2167 2.9585C21.8668 2.9585 17.9228 4.3643 15.4922 7.13566C12.6901 10.3318 12.9504 14.2073 13.0167 14.8569V21.1511C12.2593 22.0137 11.8333 23.1178 11.8333 24.2573V28.9906C11.8333 30.4308 12.4877 31.7738 13.6048 32.6696C14.6887 36.9616 16.9572 40.1956 17.75 41.2334V45.1491C17.75 46.2945 17.1252 47.3453 16.1206 47.8944L5.56403 53.6525C2.13118 55.5269 0 59.1171 0 63.0269V68.0418H52.0667H54.4333H71V63.667C71 60.0082 68.967 56.7209 65.6951 55.0843ZM52.0667 65.6752H2.36667V63.0269C2.36667 59.9845 4.0257 57.1883 6.69648 55.7328L17.253 49.9747C19.0197 49.0103 20.1167 47.1607 20.1167 45.1502V40.3944L19.841 40.0655C19.8125 40.0311 16.9122 36.5226 15.8058 31.7052L15.6981 31.2366L15.2946 30.9763C14.6094 30.5337 14.2 29.7918 14.2 28.9918V24.2585C14.2 23.5946 14.4816 22.9758 14.9928 22.5131L15.3833 22.1616V14.7918L15.3727 14.6368C15.3691 14.6049 14.9668 11.3247 17.2719 8.6953C19.2327 6.4588 22.5792 5.32516 27.2167 5.32516C31.8376 5.32516 35.1769 6.45051 37.1401 8.67163C38.1163 9.7745 38.6074 11.0063 38.8524 12.0642C38.8713 12.1471 38.8891 12.2287 38.9056 12.3104C38.9222 12.3944 38.9399 12.4784 38.953 12.5589C38.9683 12.6512 38.9814 12.7387 38.9944 12.8263C39.0038 12.889 39.0133 12.9529 39.0204 13.0133C39.0382 13.16 39.0524 13.302 39.0618 13.4334C39.063 13.444 39.063 13.4535 39.063 13.4641C39.0713 13.5919 39.0772 13.7126 39.0808 13.8227C39.0808 13.844 39.0808 13.8617 39.0819 13.883C39.0843 13.9812 39.0843 14.0747 39.0831 14.1564C39.0831 14.1682 39.0831 14.18 39.0831 14.1919C39.0784 14.47 39.0595 14.6356 39.0595 14.6392L39.05 22.1616L39.4405 22.5143C39.9517 22.9758 40.2333 23.5946 40.2333 24.2585V28.9918C40.2333 30.0249 39.5565 30.9289 38.5506 31.239L37.9613 31.42L37.772 32.0058C36.9803 34.4683 35.8526 36.7427 34.4184 38.7662C34.067 39.2643 33.725 39.7057 33.428 40.043L33.1333 40.379V45.2603C33.1333 45.5597 33.1629 45.8531 33.2091 46.1419C33.2185 46.2034 33.2351 46.2626 33.2469 46.3241C33.2931 46.562 33.3546 46.7951 33.4303 47.0223C33.4481 47.0755 33.467 47.1264 33.4871 47.1797C33.5794 47.427 33.6871 47.666 33.8126 47.8956C33.8268 47.9216 33.8398 47.9488 33.854 47.9749C34.0256 48.2778 34.2232 48.5653 34.4504 48.8304L34.7202 49.1629H34.7663C35.1722 49.5629 35.6385 49.9108 36.1686 50.1759L47.473 55.8275C50.307 57.2427 52.0667 60.0898 52.0667 63.2576V65.6752ZM68.6333 65.6752H54.4333V63.2576C54.4333 59.1881 52.172 55.5304 48.5332 53.7105L40.4179 49.6516C40.6179 49.1949 40.644 48.6718 40.4688 48.1677C40.1789 47.3335 39.4216 46.7951 38.54 46.7951H35.9165C35.8621 46.6992 35.8266 46.5939 35.7828 46.4921C35.7236 46.3561 35.6538 46.2223 35.6148 46.0792C35.5426 45.8165 35.5 45.5419 35.5 45.2603V41.2594C35.771 40.9281 36.0562 40.5506 36.3508 40.1341C37.817 38.0633 38.992 35.7581 39.8464 33.2719C41.5161 32.5063 42.6 30.8556 42.6 28.9918V24.2585C42.6 23.1189 42.174 22.0149 41.4167 21.1522V14.8581C41.4474 14.5623 41.5137 13.5931 41.3173 12.3269C42.8414 11.7282 44.549 11.4193 46.3938 11.4039C58.0389 11.4998 58.4638 23.0136 58.4756 23.4988C58.6495 32.472 64.0917 41.1624 66.424 44.4817C66.624 44.7657 66.6844 45.123 66.5885 45.4603C66.5341 45.6543 66.3779 46.007 65.9554 46.188C63.9674 47.0436 61.2706 46.801 61.1322 46.7951H52.9873C52.2264 46.7951 51.533 47.182 51.1318 47.8293C50.7319 48.4742 50.694 49.2623 51.0301 49.9392C51.4004 50.6859 52.0548 51.6834 53.1305 52.2195L64.6644 57.2155C67.1127 58.4521 68.6333 60.9205 68.6333 63.667V65.6752Z" fill="#4B506B"/>
</svg>
